<svg xmlns="http://www.w3.org/2000/svg" width="1024" height="1024" version="1.1"><path fill="#3A3A3A" d="M0 0 C1.02184387 -0.00167175 2.04368774 -0.00334351 3.09649658 -0.00506592 C18.68220939 -0.00659192 33.85554485 0.68365293 49.30224609 2.86962891 C51.95494182 3.23517817 54.60681751 3.54195773 57.26953125 3.82421875 C65.37302599 4.70728103 65.37302599 4.70728103 68.0625 5.25 C68.3925 5.91 68.7225 6.57 69.0625 7.25 C71.20128906 7.49963117 73.34142737 7.74099974 75.48583984 7.93652344 C79.74417417 8.45459254 83.76981864 9.66113161 87.875 10.875 C89.24132568 11.27477051 89.24132568 11.27477051 90.63525391 11.68261719 C135.25653393 24.94195182 173.87401941 46.96938644 209.0625 77.25 C209.9184375 77.96929687 210.774375 78.68859375 211.65625 79.4296875 C212.75453125 80.36167969 212.75453125 80.36167969 213.875 81.3125 C214.50019531 81.83972656 215.12539063 82.36695313 215.76953125 82.91015625 C217.0625 84.25 217.0625 84.25 217.0625 86.25 C217.9596875 86.6521875 217.9596875 86.6521875 218.875 87.0625 C221.06097854 88.24917406 222.47582594 89.34599113 224.0625 91.25 C224.0625 91.91 224.0625 92.57 224.0625 93.25 C225.0525 93.58 226.0425 93.91 227.0625 94.25 C229.0078125 96.3671875 229.0078125 96.3671875 231.1875 99.125 C231.98542969 100.12660156 232.78335938 101.12820313 233.60546875 102.16015625 C234.41628906 103.17980469 235.22710938 104.19945312 236.0625 105.25 C237.54037941 107.02190778 239.01952171 108.79276308 240.5 110.5625 C271.07573559 148.10886961 290.38195002 192.26797874 301.0625 239.25 C301.22588867 239.94367676 301.38927734 240.63735352 301.55761719 241.35205078 C313.74286789 293.80339396 306.6639678 349.7695034 290.80932617 400.50805664 C289.93110123 403.25878702 289.93110123 403.25878702 290.0625 406.25 C289.4025 406.25 288.7425 406.25 288.0625 406.25 C287.93101562 407.20132813 287.93101562 407.20132813 287.796875 408.171875 C279.8248733 441.58643532 255.53881134 476.97394635 232.29296875 501.84375 C230.41028363 503.87480785 228.59472994 505.93963216 226.78515625 508.03515625 C223.11327788 512.24377295 219.26350626 516.241305 215.3125 520.1875 C214.6122168 520.88697754 213.91193359 521.58645508 213.19042969 522.30712891 C208.55362927 526.88966663 203.82984914 531.1495018 198.69921875 535.17578125 C195.77188164 537.47861978 192.9556254 539.89200402 190.125 542.3125 C184.36938659 547.10270322 178.39464783 551.26200003 172.0625 555.25 C171.43166504 555.65299316 170.80083008 556.05598633 170.15087891 556.47119141 C129.35330446 582.4670578 85.10069435 598.42982094 37.0625 604.25 C36.23830566 604.3545752 35.41411133 604.45915039 34.56494141 604.56689453 C-5.11532122 608.92899223 -46.90236095 604.59730495 -84.96557617 593.01733398 C-88.07143354 592.08333607 -88.07143354 592.08333607 -91.9375 592.25 C-91.9375 591.59 -91.9375 590.93 -91.9375 590.25 C-92.5975 590.12625 -93.2575 590.0025 -93.9375 589.875 C-96.35308782 589.37175254 -98.6852261 588.7741449 -101.0625 588.125 C-104.82348532 586.92453992 -104.82348532 586.92453992 -107.9375 588.25 C-108.2675 587.26 -108.5975 586.27 -108.9375 585.25 C-111.0771513 583.93435717 -111.0771513 583.93435717 -113.7578125 582.83203125 C-114.76158936 582.38601563 -115.76536621 581.94 -116.79956055 581.48046875 C-117.87633057 581.01253906 -118.95310059 580.54460938 -120.0625 580.0625 C-130.5403064 575.39362486 -141.03503069 570.68938788 -150.70703125 564.46875 C-151.44308594 564.0665625 -152.17914063 563.664375 -152.9375 563.25 C-153.5975 563.58 -154.2575 563.91 -154.9375 564.25 C-155.2675 563.26 -155.5975 562.27 -155.9375 561.25 C-158.32711913 559.63017111 -160.70227702 558.14553161 -163.1875 556.6875 C-170.8845957 552.02626605 -177.93621348 546.88916852 -184.9375 541.25 C-185.85917969 540.52167969 -186.78085937 539.79335938 -187.73046875 539.04296875 C-198.21479195 530.64643286 -209.12032087 521.41140024 -217.9375 511.25 C-217.9375 510.59 -217.9375 509.93 -217.9375 509.25 C-218.5975 509.25 -219.2575 509.25 -219.9375 509.25 C-219.9375 508.59 -219.9375 507.93 -219.9375 507.25 C-220.9275 506.92 -221.9175 506.59 -222.9375 506.25 C-224.59375 504.45703125 -224.59375 504.45703125 -226.4375 502.0625 C-227.47970703 500.72832031 -227.47970703 500.72832031 -228.54296875 499.3671875 C-229.80818504 497.72013595 -231.07300135 496.07277314 -232.33447266 494.42285156 C-233.31411179 493.1434161 -234.29638622 491.86599425 -235.28125 490.59057617 C-236.25001733 489.33533326 -237.21242517 488.0751529 -238.16796875 486.80981445 C-240.91238084 483.19343094 -240.91238084 483.19343094 -244.9375 481.25 C-245.46142578 479.46948242 -245.46142578 479.46948242 -245.9375 477.25 C-247.72118073 473.91576285 -249.78827209 470.75528102 -251.8125 467.5625 C-252.35519531 466.68271484 -252.89789063 465.80292969 -253.45703125 464.89648438 C-253.98425781 464.06052734 -254.51148438 463.22457031 -255.0546875 462.36328125 C-255.53534668 461.59798096 -256.01600586 460.83268066 -256.51123047 460.04418945 C-257.90306786 457.95822936 -257.90306786 457.95822936 -260.9375 457.25 C-260.6075 456.59 -260.2775 455.93 -259.9375 455.25 C-261.00310241 452.70368456 -261.00310241 452.70368456 -262.62109375 449.81640625 C-263.21519043 448.70249512 -263.80928711 447.58858398 -264.42138672 446.44091797 C-264.74040955 445.84937927 -265.05943237 445.25784058 -265.38812256 444.64837646 C-281.84122807 414.04085833 -292.47343286 381.64093398 -297.8125 347.25 C-297.99292847 346.09504028 -297.99292847 346.09504028 -298.17700195 344.91674805 C-298.96481476 339.34469635 -299.05633154 333.8717587 -298.9375 328.25 C-299.5975 327.92 -300.2575 327.59 -300.9375 327.25 C-300.9375 309.1 -300.9375 290.95 -300.9375 272.25 C-300.2775 272.25 -299.6175 272.25 -298.9375 272.25 C-298.93492187 271.45464844 -298.93234375 270.65929687 -298.9296875 269.83984375 C-296.69708347 200.25701815 -258.11713532 128.76656972 -208.125 81.75 C-191.00096622 65.74982336 -172.41497175 52.02740854 -152.03466797 40.46679688 C-150.55732253 39.60962695 -149.09383978 38.72834065 -147.64111328 37.83007812 C-113.74331565 16.87187171 -72.03998949 6.34296364 -32.9375 1.25 C-32.14625732 1.1454248 -31.35501465 1.04084961 -30.53979492 0.93310547 C-20.41503724 -0.19130886 -10.17317964 0.00876629 0 0 Z M-191.6796875 90.91015625 C-193.1656453 92.18673501 -193.1656453 92.18673501 -192.9375 94.25 C-193.50855469 94.49492187 -194.07960938 94.73984375 -194.66796875 94.9921875 C-201.94211355 99.02364124 -207.59325302 106.96646112 -212.9375 113.25 C-213.77152344 114.20648438 -214.60554688 115.16296875 -215.46484375 116.1484375 C-220.35955063 121.79584152 -225.02297733 127.54673776 -229.375 133.625 C-229.77565674 134.1833252 -230.17631348 134.74165039 -230.58911133 135.31689453 C-233.30335886 139.17377212 -235.62168698 143.14987204 -237.9375 147.25 C-238.94826039 148.79828945 -239.96888336 150.34019211 -241 151.875 C-261.01594876 183.35307326 -272.28609804 218.798636 -278.9375 255.25 C-279.11829102 256.18231445 -279.29908203 257.11462891 -279.48535156 258.07519531 C-284.93773584 286.81132001 -283.95047077 319.50733734 -278.9375 348.25 C-278.76589355 349.23693848 -278.59428711 350.22387695 -278.41748047 351.24072266 C-277.14427919 358.29851314 -275.61992218 365.27915655 -273.9375 372.25 C-273.57446777 373.76327881 -273.57446777 373.76327881 -273.20410156 375.30712891 C-269.09466963 392.02780982 -263.10950877 407.61404584 -255.9375 423.25 C-255.58042969 424.03197754 -255.22335938 424.81395508 -254.85546875 425.61962891 C-246.10414565 444.52998294 -234.67168392 461.81118073 -221.9375 478.25 C-221.29385498 479.08265381 -221.29385498 479.08265381 -220.63720703 479.93212891 C-207.70644064 496.51712445 -192.56807213 512.38306513 -175.9375 525.25 C-174.93332031 526.04792969 -173.92914063 526.84585937 -172.89453125 527.66796875 C-155.16746729 541.66948347 -135.10965737 555.15381843 -113.9375 563.25 C-112.52648955 563.82603704 -111.11644401 564.4044398 -109.70703125 564.984375 C-38.06144455 594.23371125 43.1072128 595.64758318 114.92236328 565.60009766 C129.19961026 559.46161408 142.9933449 552.67268973 156.0625 544.25 C157.11566406 543.57195313 158.16882813 542.89390625 159.25390625 542.1953125 C170.39352791 535.25352259 170.39352791 535.25352259 180.39868164 526.88452148 C182.46115263 524.85836694 184.69185067 523.12798372 186.9609375 521.3359375 C193.02815931 516.3987083 198.57305007 511.04381105 204.07910156 505.49414062 C205.68597307 503.87653713 207.30328494 502.26993087 208.921875 500.6640625 C217.57313566 492.02509571 225.36430127 482.82767386 232.5625 472.9375 C233.02188965 472.30706787 233.4812793 471.67663574 233.95458984 471.02709961 C278.14340317 409.81497744 297.06709115 331.82570684 285.79663086 257.1809082 C283.71537772 244.31240357 280.71241752 231.7592222 277.0625 219.25 C276.81693359 218.39937988 276.57136719 217.54875977 276.31835938 216.67236328 C264.35908657 176.08498956 241.55372864 133.86378321 211.0625 104.25 C210.4025 104.25 209.7425 104.25 209.0625 104.25 C208.84207031 103.69441406 208.62164063 103.13882813 208.39453125 102.56640625 C206.62871824 99.49565224 204.38345102 97.55586191 201.75 95.1875 C201.2245459 94.7143335 200.6990918 94.24116699 200.15771484 93.75366211 C196.21223813 90.22230319 192.21394775 86.75111097 188.1875 83.3125 C187.66502686 82.86447021 187.14255371 82.41644043 186.60424805 81.95483398 C183.24188977 79.1169244 179.74533401 76.65140957 176.0625 74.25 C174.80304416 73.32524207 173.55189181 72.38898 172.3125 71.4375 C170.8961499 70.37457804 169.4794752 69.31208849 168.0625 68.25 C167.40378906 67.74855469 166.74507812 67.24710938 166.06640625 66.73046875 C151.99259981 56.41971216 136.07896181 48.109836 120.0625 41.25 C119.22058105 40.8880957 118.37866211 40.52619141 117.51123047 40.15332031 C86.54844405 27.02979783 49.47838176 16.81916697 15.515625 18.2421875 C13.0625 18.25 13.0625 18.25 10.75439453 17.75732422 C-58.62914592 4.68105023 -141.02887018 47.57085859 -191.6796875 90.91015625 Z" transform="translate(508.9375,210.75)"/><path fill="#3A3B3A" d="M0 0 C1.81828213 2.21356086 1.98939516 3.9481541 2.5625 6.75 C1.16920351 14.80015751 -8.56628732 21.68602651 -14.1796875 27.2421875 C-15.03305695 28.09177032 -15.88642639 28.94135315 -16.76565552 29.81668091 C-19.4663433 32.5052412 -22.17026368 35.19051304 -24.875 37.875 C-28.45857014 41.43205324 -32.03886787 44.99235333 -35.6171875 48.5546875 C-36.85612259 49.78117508 -36.85612259 49.78117508 -38.12008667 51.03244019 C-38.87822662 51.78727692 -39.63636658 52.54211365 -40.41748047 53.31982422 C-41.08697723 53.98408417 -41.756474 54.64834412 -42.44625854 55.33273315 C-44.08420997 56.9329069 -44.08420997 56.9329069 -45 59 C-45.66 59 -46.32 59 -47 59 C-47.66 60.32 -48.32 61.64 -49 63 C-49.66 63 -50.32 63 -51 63 C-51.32669426 63.81516083 -51.32669426 63.81516083 -51.6599884 64.64678955 C-53.4515901 67.79304279 -55.88009708 70.1340723 -58.44018555 72.65136719 C-58.99494064 73.20480804 -59.54969574 73.7582489 -60.1212616 74.32846069 C-61.95519362 76.15590625 -63.79599868 77.97626923 -65.63671875 79.796875 C-66.9179747 81.07185556 -68.19871354 82.34735597 -69.47895813 83.62335205 C-72.85372344 86.98481262 -76.23399969 90.34067164 -79.61590576 93.69494629 C-85.01185194 99.04780884 -90.40122712 104.40726397 -95.78717995 109.77017975 C-97.66077537 111.63363959 -99.53779729 113.49359449 -101.41520691 115.35321045 C-106.66678823 120.56805274 -111.87056423 125.76000512 -116.64338684 131.42559814 C-118.03672158 133.04261681 -119.40610675 134.57816187 -121 136 C-121.66 136 -122.32 136 -123 136 C-123.268125 136.639375 -123.53625 137.27875 -123.8125 137.9375 C-125 140 -125 140 -128 141 C-128.70093087 142.31564362 -129.36443454 143.65156432 -130 145 C-131.42944336 146.59643555 -131.42944336 146.59643555 -133.08984375 148.13671875 C-133.7041626 148.7097876 -134.31848145 149.28285645 -134.95141602 149.87329102 C-135.93452759 150.77132446 -135.93452759 150.77132446 -136.9375 151.6875 C-137.94478149 152.61743774 -137.94478149 152.61743774 -138.97241211 153.56616211 C-143.75685939 157.94967487 -148.64397984 162.14960613 -153.734375 166.17578125 C-156.16400815 168.07222475 -156.16400815 168.07222475 -158.8125 170.75 C-163.99479781 174.40809257 -169.98096431 176.11451894 -176 178 C-176.98033203 178.31324219 -176.98033203 178.31324219 -177.98046875 178.6328125 C-186.29740587 180.14498289 -195.68849592 179.16652689 -204 178 C-204 177.34 -204 176.68 -204 176 C-204.804375 175.79375 -205.60875 175.5875 -206.4375 175.375 C-217.84330485 170.97275953 -227.4869589 161.3385822 -232.9375 150.4375 C-233.288125 149.633125 -233.63875 148.82875 -234 148 C-234.66 148 -235.32 148 -236 148 C-235.67 147.01 -235.34 146.02 -235 145 C-235.31947145 143.0687204 -235.31947145 143.0687204 -235.9375 141 C-238.94492185 128.22875651 -236.54427257 114.86106333 -229.83203125 103.625 C-222.46242641 93.0655662 -211.96737555 85.82965366 -199.55078125 82.3046875 C-188.91146104 81.03383455 -178.81740542 81.33718155 -168.69921875 85.02734375 C-163.60474333 86.97942855 -163.60474333 86.97942855 -158.42651367 85.95874023 C-157.51619385 85.41419189 -156.60587402 84.86964355 -155.66796875 84.30859375 C-154.63478516 83.70080078 -153.60160156 83.09300781 -152.53710938 82.46679688 C-151.43173828 81.79712891 -150.32636719 81.12746094 -149.1875 80.4375 C-148.02103941 79.74529838 -146.85370719 79.05456366 -145.68554688 78.36523438 C-143.28399029 76.94565636 -140.88706136 75.51871985 -138.49365234 74.08544922 C-133.35543247 71.01191185 -128.1757386 68.00975505 -123 65 C-121.03898989 63.85429093 -119.07805317 62.70845625 -117.1171875 61.5625 C-112.7751862 59.02954785 -108.42564749 56.50994088 -104.0703125 54 C-103.48916687 53.66508545 -102.90802124 53.3301709 -102.30926514 52.98510742 C-99.50788817 51.37126114 -96.70559212 49.75903111 -93.90234375 48.1484375 C-90.93110716 46.43875257 -87.96537858 44.71981889 -85 43 C-84.01741211 42.43925781 -83.03482422 41.87851562 -82.02246094 41.30078125 C-81.1049707 40.76839844 -80.18748047 40.23601562 -79.2421875 39.6875 C-78.42347168 39.21699219 -77.60475586 38.74648438 -76.76123047 38.26171875 C-76.18002441 37.84535156 -75.59881836 37.42898438 -75 37 C-75 36.34 -75 35.68 -75 35 C-74.09894531 34.81824219 -73.19789063 34.63648438 -72.26953125 34.44921875 C-66.21637216 32.70827262 -61.02112277 29.06615102 -55.6875 25.8125 C-53.28859672 24.36492685 -50.88638687 22.92287615 -48.484375 21.48046875 C-47.87198471 21.11167603 -47.25959442 20.7428833 -46.62864685 20.36291504 C-42.28479616 17.75232741 -37.91187602 15.19703613 -33.515625 12.67578125 C-32.61714592 12.16042564 -32.61714592 12.16042564 -31.70051575 11.63465881 C-28.82008035 9.98471788 -25.93672288 8.34007446 -23.05151367 6.69848633 C-22.0226001 6.10962646 -20.99368652 5.5207666 -19.93359375 4.9140625 C-19.02665771 4.3979541 -18.11972168 3.8818457 -17.18530273 3.35009766 C-14.90168516 2.05495985 -14.90168516 2.05495985 -13 0 C-8.05774605 -2.29872277 -5.01294726 -2.1208623 0 0 Z M-62 49 C-63.32 49.99 -64.64 50.98 -66 52 C-64.35 51.67 -62.7 51.34 -61 51 C-61.33 50.34 -61.66 49.68 -62 49 Z M-69.86328125 53.35351562 C-71.01934914 54.02701327 -72.16869897 54.71212376 -73.3125 55.40625 C-74.2396582 55.95303406 -74.2396582 55.95303406 -75.18554688 56.51086426 C-77.13068368 57.66264834 -79.06609758 58.82946722 -81 60 C-81.59345215 60.35658691 -82.1869043 60.71317383 -82.79833984 61.08056641 C-86.87865795 63.53241163 -90.94155328 66.0121631 -95 68.5 C-102.53607086 73.11962826 -110.0990706 77.66325501 -117.78872681 82.02331543 C-124.04695204 85.57816175 -130.21214787 89.28307599 -136.375 93 C-138.06882812 94.01900391 -138.06882812 94.01900391 -139.796875 95.05859375 C-142.53208216 96.70435399 -145.26644584 98.35149619 -148 100 C-146.53204716 103.68074433 -145.02941572 107.34432339 -143.5 111 C-139 121.75609756 -139 121.75609756 -139 123 C-138.67619874 124.33568021 -138.34342449 125.66923011 -138 127 C-134.67982905 125.89327635 -134.01039091 125.10283668 -131.84741211 122.47412109 C-127.94055664 117.87250181 -123.7402646 113.6474911 -119.44140625 109.4140625 C-117.82344006 107.80872239 -116.2056052 106.20324992 -114.58789062 104.59765625 C-112.05923349 102.09397168 -109.52899097 99.59192772 -106.99633789 97.09228516 C-104.53621902 94.66218215 -102.08220267 92.22605003 -99.62890625 89.7890625 C-98.86340958 89.03702545 -98.0979129 88.2849884 -97.30921936 87.51016235 C-96.61106613 86.81538788 -95.9129129 86.1206134 -95.19360352 85.40478516 C-94.57518082 84.79381989 -93.95675812 84.18285461 -93.31959534 83.55337524 C-91.78419065 82.08565974 -91.78419065 82.08565974 -92 80 C-91.46246094 79.78988281 -90.92492187 79.57976562 -90.37109375 79.36328125 C-87.09661712 77.48059205 -84.6682841 74.87786636 -82.0625 72.1875 C-81.29389648 71.40536133 -81.29389648 71.40536133 -80.50976562 70.60742188 C-79.49258696 69.57214855 -78.47757529 68.53474121 -77.46484375 67.49511719 C-76.0744985 66.07603814 -74.66469942 64.67609601 -73.25390625 63.27734375 C-70.97383455 60.97356247 -69.00684459 58.54200315 -67 56 C-66.01769502 54.9826127 -65.02530403 53.97403883 -64 53 C-67.02426882 51.60783632 -67.02426882 51.60783632 -69.86328125 53.35351562 Z M-211 109 C-216.91743858 116.08820062 -219.60221583 123.35252042 -219.30078125 132.5859375 C-218.0878178 142.32115066 -213.41891867 149.70412866 -206 156 C-198.08580589 161.01847585 -189.62725791 163.00681946 -180.375 161.375 C-175.79579574 160.18326413 -171.61567252 158.07381424 -168 155 C-168 154.34 -168 153.68 -168 153 C-167.01 153 -166.02 153 -165 153 C-158.64836856 145.72713957 -156.15859738 137.5158426 -156 128 C-156.68064503 118.98523474 -161.40429736 112.18809932 -167.875 106.125 C-180.83159401 95.52415036 -199.41564695 97.14037519 -211 109 Z" transform="translate(700,384)"/><path fill="#3B3C3C" d="M0 0 C3.52141871 3.4325501 4.47107095 6.01913669 4.58143616 10.92700195 C4.57399635 12.04594849 4.57399635 12.04594849 4.56640625 13.1875 C4.57570412 14.35768677 4.57570412 14.35768677 4.58518982 15.55151367 C4.5922712 17.19546261 4.58914331 18.83948351 4.57641602 20.48339844 C4.56253936 22.99288267 4.59665103 25.49864233 4.63476562 28.0078125 C4.63571684 29.60937591 4.63385787 31.21094396 4.62890625 32.8125 C4.64216446 33.55846436 4.65542267 34.30442871 4.66908264 35.07299805 C4.59779516 39.07861563 4.15377523 40.81176381 1.58691406 43.95385742 C-1.72264456 46.57158211 -3.93945133 47.12419538 -8 48 C-8 47.34 -8 46.68 -8 46 C-8.61875 45.7525 -9.2375 45.505 -9.875 45.25 C-12.37818306 43.77753937 -12.83045281 42.58971163 -14 40 C-14.66 39.67 -15.32 39.34 -16 39 C-15.93084669 34.55202884 -15.84274903 30.1049454 -15.73754883 25.65771484 C-15.70442074 24.14675096 -15.67635145 22.63566693 -15.65356445 21.12451172 C-15.61979319 18.94446918 -15.56747104 16.76551561 -15.51171875 14.5859375 C-15.48553467 13.2767334 -15.45935059 11.9675293 -15.43237305 10.61865234 C-14.9051287 6.20599525 -13.77478746 2.51185599 -10.3125 -0.4375 C-6.8084179 -1.2898443 -3.38397151 -1.31525455 0 0 Z" transform="translate(517,277)"/><path fill="#3B3B3B" d="M0 0 C3.63614014 2.49984634 4.77563041 4.00903433 5.75 8.3125 C4.97952798 12.1006541 4.47549921 12.94499113 1.99609375 15.67578125 C1.36268066 16.37372803 0.72926758 17.0716748 0.07666016 17.79077148 C-3.45285203 21.54559817 -7.04526695 25.2295692 -10.6875 28.875 C-11.43322266 29.63296875 -12.17894531 30.3909375 -12.94726562 31.171875 C-14.03104492 32.25855469 -14.03104492 32.25855469 -15.13671875 33.3671875 C-15.78342529 34.01800293 -16.43013184 34.66881836 -17.09643555 35.33935547 C-20.05760175 37.92263782 -21.97454739 39.04363628 -25.9375 38.875 C-29.62279823 37.82205765 -31.46916251 36.90301948 -34 34 C-34.67710004 30.61449981 -34.91414786 29.18504503 -34 26 C-32.70532227 24.14916992 -32.70532227 24.14916992 -31.00390625 22.29296875 C-30.37081543 21.60025879 -29.73772461 20.90754883 -29.08544922 20.19384766 C-25.50608682 16.42843551 -21.87058412 12.72641802 -18.1875 9.0625 C-17.42501953 8.29615234 -16.66253906 7.52980469 -15.87695312 6.74023438 C-15.14798828 6.01255859 -14.41902344 5.28488281 -13.66796875 4.53515625 C-13.01078857 3.879104 -12.3536084 3.22305176 -11.67651367 2.54711914 C-8.25902352 -0.60660667 -4.45212051 -0.74060131 0 0 Z" transform="translate(671,333)"/><path fill="#3A3A39" d="M0 0 C5.84480575 4.18482512 10.78724183 9.69844934 15.875 14.75 C16.54200928 15.41217529 17.20901855 16.07435059 17.89624023 16.7565918 C18.52602783 17.38863525 19.15581543 18.02067871 19.8046875 18.671875 C20.37171387 19.2400293 20.93874023 19.80818359 21.52294922 20.39355469 C24.69362104 23.84198784 25.50814813 26.37532766 25.37890625 31.0625 C25 33 25 33 22.875 35.4375 C19.70827197 37.15854784 17.60738926 37.92484606 14 38 C9.90178811 35.94707585 6.95204546 33.19738384 3.734375 29.96484375 C3.25550842 29.48551895 2.77664185 29.00619415 2.28326416 28.51234436 C1.27923367 27.50530969 0.27761745 26.49586269 -0.72167969 25.48413086 C-2.25400531 23.9334467 -3.7942855 22.39101636 -5.3359375 20.84960938 C-13.85716185 12.28554331 -13.85716185 12.28554331 -14.3125 8.1875 C-13.92382474 4.22301233 -12.78841168 2.78841168 -10 0 C-6.32913655 -2.81432865 -4.02533392 -1.93525669 0 0 Z" transform="translate(362,334)"/><path fill="#4B4B4B" d="M0 0 C0.66 0 1.32 0 2 0 C2.33 4.29 2.66 8.58 3 13 C3.33 13 3.66 13 4 13 C4 22.57 4 32.14 4 42 C3.67 42 3.34 42 3 42 C2.67 45.63 2.34 49.26 2 53 C0 51 0 51 -0.24050903 48.82333374 C-0.23606781 47.92176544 -0.23162659 47.02019714 -0.22705078 46.09130859 C-0.22689972 45.07040131 -0.22674866 44.04949402 -0.22659302 42.99765015 C-0.21627045 41.89240997 -0.20594788 40.7871698 -0.1953125 39.6484375 C-0.1924826 38.5192691 -0.18965271 37.39010071 -0.18673706 36.22671509 C-0.17551462 32.60937029 -0.15040622 28.99227034 -0.125 25.375 C-0.11497287 22.9270869 -0.10584656 20.47916993 -0.09765625 18.03125 C-0.07556857 12.02074936 -0.04207074 6.01039217 0 0 Z" transform="translate(208,485)"/><path fill="#454544" d="M0 0 C-18.00333086 9.90259981 -47.17746739 4.89383765 -67 4 C-67 3.67 -67 3.34 -67 3 C-66.24195068 2.98018066 -65.48390137 2.96036133 -64.70288086 2.93994141 C-50.68741788 2.5574037 -36.77325257 2.01804975 -22.81396484 0.66503906 C-15.18163828 -0.05113467 -7.66269399 -0.21789651 0 0 Z" transform="translate(565,795)"/><path fill="#353534" d="M0 0 C0.99 0.33 1.98 0.66 3 1 C2.67 12.88 2.34 24.76 2 37 C0.68 36.34 -0.64 35.68 -2 35 C-1.88170234 30.49746184 -1.75745066 25.99514221 -1.62768555 21.49291992 C-1.58438167 19.96138982 -1.54270333 18.42981285 -1.50268555 16.89819336 C-1.44487268 14.69630818 -1.38121031 12.49465789 -1.31640625 10.29296875 C-1.29969376 9.60849167 -1.28298126 8.92401459 -1.26576233 8.21879578 C-1.1726445 5.22879896 -0.95312563 2.85937689 0 0 Z" transform="translate(503,281)"/><path fill="#272626" d="M0 0 C0 0.33 0 0.66 0 1 C-3.89539457 1.19747891 -7.79132016 1.38123029 -11.6875 1.5625 C-12.79029297 1.61857422 -13.89308594 1.67464844 -15.02929688 1.73242188 C-16.09599609 1.78076172 -17.16269531 1.82910156 -18.26171875 1.87890625 C-19.24100342 1.9260376 -20.22028809 1.97316895 -21.22924805 2.02172852 C-23.97893924 2.00016516 -26.31309417 1.54876291 -29 1 C-31.34814366 0.8548483 -33.69919857 0.75364089 -36.05078125 0.68359375 C-36.70958786 0.66281265 -37.36839447 0.64203156 -38.04716492 0.62062073 C-40.13551185 0.55564511 -42.22397612 0.49648425 -44.3125 0.4375 C-45.7350378 0.39426521 -47.15756406 0.3506494 -48.58007812 0.30664062 C-52.05326297 0.20001784 -55.52657726 0.09860652 -59 0 C-59 -0.33 -59 -0.66 -59 -1 C-39.2008346 -2.86345086 -19.75919652 -1.94005951 0 0 Z" transform="translate(546,228)"/><path fill="#383737" d="M0 0 C0 3 0 3 -1.3293457 4.70166016 C-1.93866943 5.30800293 -2.54799316 5.9143457 -3.17578125 6.5390625 C-3.83900391 7.20164062 -4.50222656 7.86421875 -5.18554688 8.546875 C-5.88744141 9.23265625 -6.58933594 9.9184375 -7.3125 10.625 C-8.00279297 11.31851562 -8.69308594 12.01203125 -9.40429688 12.7265625 C-14.5994224 17.86647413 -14.5994224 17.86647413 -18 19 C-18 18.01 -18 17.02 -18 16 C-16.02043058 14.30911778 -14.02054804 12.64169528 -12 11 C-12 10.34 -12 9.68 -12 9 C-10.68 8.34 -9.36 7.68 -8 7 C-8.33 6.34 -8.66 5.68 -9 5 C-8.195625 4.71125 -7.39125 4.4225 -6.5625 4.125 C-3.8673532 3.26737432 -3.8673532 3.26737432 -3 1 C-2.01 0.67 -1.02 0.34 0 0 Z" transform="translate(643,431)"/><path fill="#313232" d="M0 0 C0.99 0.33 1.98 0.66 3 1 C-6.32374101 11.46127804 -6.32374101 11.46127804 -11 16 C-11.598125 16.598125 -12.19625 17.19625 -12.8125 17.8125 C-13.204375 18.204375 -13.59625 18.59625 -14 19 C-14.66 18.67 -15.32 18.34 -16 18 C-15.401875 17.443125 -14.80375 16.88625 -14.1875 16.3125 C-11.95445238 14.13314628 -11.95445238 14.13314628 -10.65625 11.65625 C-8.83260277 8.73153275 -6.78185994 6.58528429 -4.3125 4.1875 C-3.50425781 3.39730469 -2.69601562 2.60710937 -1.86328125 1.79296875 C-1.24839844 1.20128906 -0.63351562 0.60960937 0 0 Z" transform="translate(606,467)"/><path fill="#515151" d="M0 0 C-0.99 0 -1.98 0 -3 0 C-3.33 0.66 -3.66 1.32 -4 2 C-5.32 1.67 -6.64 1.34 -8 1 C-8.33 1.66 -8.66 2.32 -9 3 C-11.32156597 3.40729228 -13.6568787 3.74438677 -16 4 C-16 4.66 -16 5.32 -16 6 C-16.93972656 5.98259766 -16.93972656 5.98259766 -17.8984375 5.96484375 C-19.12433594 5.95130859 -19.12433594 5.95130859 -20.375 5.9375 C-21.59316406 5.92009766 -21.59316406 5.92009766 -22.8359375 5.90234375 C-25.04937142 5.85533666 -25.04937142 5.85533666 -27 7 C-29.125 6.0625 -29.125 6.0625 -31 5 C-27.62581286 4.18409943 -24.25051419 3.3728913 -20.875 2.5625 C-19.92367188 2.33240234 -18.97234375 2.10230469 -17.9921875 1.86523438 C-4.17489954 -1.44515753 -4.17489954 -1.44515753 0 0 Z" transform="translate(461,216)"/><path fill="#2C2D2C" d="M0 0 C4.34435207 7.5387286 4.28783402 17.50889651 4 26 C3.67 26 3.34 26 3 26 C3 23.69 3 21.38 3 19 C2.34 19 1.68 19 1 19 C-0.15316726 12.65758005 -0.09507063 6.43311296 0 0 Z" transform="translate(794,458)"/><path fill="#303030" d="M0 0 C1.66042444 2.49063665 2.55324168 4.25176398 3.5078125 7.01171875 C3.77207031 7.76904297 4.03632813 8.52636719 4.30859375 9.30664062 C4.57800781 10.09232422 4.84742188 10.87800781 5.125 11.6875 C5.40214844 12.48478516 5.67929688 13.28207031 5.96484375 14.10351562 C6.6470154 16.06769952 7.32401098 18.03367973 8 20 C7.01 20 6.02 20 5 20 C4.15450362 17.79567015 3.32357186 15.58751467 2.5 13.375 C1.80390625 11.53035156 1.80390625 11.53035156 1.09375 9.6484375 C0.05683081 6.18957134 -0.22019382 3.57814964 0 0 Z" transform="translate(224,605)"/><path fill="#3C3C3C" d="M0 0 C-0.66 0 -1.32 0 -2 0 C-1.67 0.99 -1.34 1.98 -1 3 C-1.58007812 3.06058594 -2.16015625 3.12117187 -2.7578125 3.18359375 C-6.28975985 3.56243299 -9.75914733 3.95368218 -13.25 4.625 C-16.12823848 5.01748706 -18.20852183 4.73892069 -21 4 C-21 3.67 -21 3.34 -21 3 C-18.06449875 2.30278105 -15.12712524 1.61690995 -12.1875 0.9375 C-11.35412109 0.73833984 -10.52074219 0.53917969 -9.66210938 0.33398438 C-8.85966797 0.15029297 -8.05722656 -0.03339844 -7.23046875 -0.22265625 C-6.12288208 -0.48187866 -6.12288208 -0.48187866 -4.99291992 -0.74633789 C-3 -1 -3 -1 0 0 Z" transform="translate(590,789)"/><path fill="#333232" d="M0 0 C0.33 0.99 0.66 1.98 1 3 C-2.96 6.96 -6.92 10.92 -11 15 C-11.99 14.67 -12.98 14.34 -14 14 C-9.38 9.38 -4.76 4.76 0 0 Z" transform="translate(677,416)"/><path fill="#464545" d="M0 0 C0.66 0 1.32 0 2 0 C2.10920422 7.74136601 1.97159933 15.31395526 1 23 C0.67 23 0.34 23 0 23 C-1.33257403 7.25512528 -1.33257403 7.25512528 0 0 Z" transform="translate(813,524)"/><path fill="#303131" d="M0 0 C0.99 0.33 1.98 0.66 3 1 C2.04882866 2.1725131 1.08882991 3.33787015 0.125 4.5 C-0.40867187 5.1496875 -0.94234375 5.799375 -1.4921875 6.46875 C-1.98976563 6.9740625 -2.48734375 7.479375 -3 8 C-3.66 8 -4.32 8 -5 8 C-5.33 10.64 -5.66 13.28 -6 16 C-6.33 16 -6.66 16 -7 16 C-7.59823038 11.81238736 -8.00620405 8.39204169 -5.44140625 4.84375 C-3.69172192 3.12575009 -1.92043997 1.52361436 0 0 Z" transform="translate(645,350)"/><path fill="#343434" d="M0 0 C0.33 0 0.66 0 1 0 C1.08948558 4.47427924 0.85743651 8.60563789 0 13 C-0.66 13 -1.32 13 -2 13 C-2.33 14.65 -2.66 16.3 -3 18 C-3.99 17.67 -4.98 17.34 -6 17 C-5.73445312 16.27554688 -5.46890625 15.55109375 -5.1953125 14.8046875 C-3.3996044 9.88942809 -1.61465901 4.97853195 0 0 Z" transform="translate(799,604)"/><path fill="#303030" d="M0 0 C6.26678784 2.29272726 9.21865269 6.66360157 13 12 C12.34 12.66 11.68 13.32 11 14 C9.53618641 12.42173185 8.07914837 10.83717771 6.625 9.25 C5.81289063 8.36828125 5.00078125 7.4865625 4.1640625 6.578125 C2.3374152 4.40197479 1.10212006 2.59179881 0 0 Z" transform="translate(730,302)"/><path fill="#323131" d="M0 0 C-4.62 3.3 -9.24 6.6 -14 10 C-14.66 9.67 -15.32 9.34 -16 9 C-13.30291809 6.13945858 -10.55626501 3.52456704 -7.4375 1.125 C-6.87933594 0.69445312 -6.32117188 0.26390625 -5.74609375 -0.1796875 C-4 -1 -4 -1 0 0 Z" transform="translate(349,259)"/><path fill="#595959" d="M0 0 C0.83595703 0.00451172 1.67191406 0.00902344 2.53320312 0.01367188 C4.58466649 0.02539452 6.63609273 0.04332797 8.6875 0.0625 C8.6875 0.3925 8.6875 0.7225 8.6875 1.0625 C7.76066406 1.11148437 6.83382812 1.16046875 5.87890625 1.2109375 C4.68136719 1.28570312 3.48382812 1.36046875 2.25 1.4375 C0.45755859 1.54191406 0.45755859 1.54191406 -1.37109375 1.6484375 C-2.34175781 1.78507812 -3.31242187 1.92171875 -4.3125 2.0625 C-4.6425 2.7225 -4.9725 3.3825 -5.3125 4.0625 C-10.85096154 4.43173077 -10.85096154 4.43173077 -13.1875 2.5625 C-13.55875 2.0675 -13.93 1.5725 -14.3125 1.0625 C-9.54157044 -0.17152862 -4.88780554 -0.05015112 0 0 Z" transform="translate(512.3125,465.9375)"/><path fill="#454444" d="M0 0 C3.20947945 2.55700286 3.63528245 4.89916552 4.25 8.875 C4.50523437 10.41800781 4.50523437 10.41800781 4.765625 11.9921875 C4.99417478 14.92524295 4.73185439 17.16667799 4 20 C0.67554357 13.93775593 -0.36108506 6.86061613 0 0 Z" transform="translate(213,563)"/><path fill="#30302F" d="M0 0 C3.69876091 1.37287342 6.9514476 3.06355453 10.3125 5.125 C11.19550781 5.66382813 12.07851563 6.20265625 12.98828125 6.7578125 C13.65214844 7.16773438 14.31601562 7.57765625 15 8 C12.50935112 8.68707555 10.62113708 9 8 9 C5.5 6.6875 5.5 6.6875 3 4 C2.401875 3.4225 1.80375 2.845 1.1875 2.25 C0 1 0 1 0 0 Z" transform="translate(347,766)"/><path fill="#343434" d="M0 0 C-1.24864277 3.74592831 -2.48822934 4.24472985 -5.8125 6.25 C-7.12154297 7.06210937 -7.12154297 7.06210937 -8.45703125 7.890625 C-11 9 -11 9 -13.32421875 8.671875 C-13.87722656 8.45015625 -14.43023438 8.2284375 -15 8 C-12.8782637 6.66121428 -10.75294812 5.32884524 -8.625 4 C-8.02171875 3.6184375 -7.4184375 3.236875 -6.796875 2.84375 C-2.2265625 0 -2.2265625 0 0 0 Z" transform="translate(597,456)"/><path fill="#333232" d="M0 0 C4.35970831 1.34849837 8.31341438 3.04907846 12.375 5.125 C13.43460938 5.66382813 14.49421875 6.20265625 15.5859375 6.7578125 C16.38257813 7.16773438 17.17921875 7.57765625 18 8 C16.41796875 8.70703125 16.41796875 8.70703125 14 9 C10.80078125 7.63671875 10.80078125 7.63671875 7.3125 5.6875 C6.71888672 5.36587891 6.12527344 5.04425781 5.51367188 4.71289062 C1.14289414 2.28578828 1.14289414 2.28578828 0 0 Z" transform="translate(634,253)"/><path fill="#4F4F4E" d="M0 0 C6.86515862 -0.26404456 13.25846717 0.74158054 20 2 C20 2.33 20 2.66 20 3 C6.99115044 4.91740413 6.99115044 4.91740413 1.5625 1.4375 C1.046875 0.963125 0.53125 0.48875 0 0 Z" transform="translate(547,213)"/><path fill="#4A4A4A" d="M0 0 C0.33 0 0.66 0 1 0 C2.03026944 6.69675136 2.10152799 13.2314676 2 20 C1.67 20 1.34 20 1 20 C0.67 18.35 0.34 16.7 0 15 C-0.33 15 -0.66 15 -1 15 C-1.10251672 9.87416389 -1.03590199 5.05002222 0 0 Z" transform="translate(813,476)"/><path fill="#262626" d="M0 0 C1.28132813 0.00902344 2.56265625 0.01804688 3.8828125 0.02734375 C4.87023437 0.03894531 5.85765625 0.05054688 6.875 0.0625 C6.875 0.3925 6.875 0.7225 6.875 1.0625 C0.40705867 2.57483701 -5.48090042 3.27682579 -12.125 3.0625 C-7.63412831 0.06858554 -5.41982037 -0.04927109 0 0 Z" transform="translate(470.125,213.9375)"/><path fill="#282827" d="M0 0 C0.33 0.99 0.66 1.98 1 3 C1.66 3 2.32 3 3 3 C3.71033431 8.52967941 4.30267176 13.49983036 3 19 C2.67 19 2.34 19 2 19 C1.66089006 16.95928485 1.32897296 14.91737379 1 12.875 C0.814375 11.73804688 0.62875 10.60109375 0.4375 9.4296875 C0.03043951 6.23862398 -0.07809902 3.21182209 0 0 Z" transform="translate(810,463)"/><path fill="#2F2F2D" d="M0 0 C3 1 3 1 4.421875 3.36328125 C4.86015625 4.33652344 5.2984375 5.30976563 5.75 6.3125 C6.42289063 7.76076172 6.42289063 7.76076172 7.109375 9.23828125 C8.02884475 12.08944404 8.06798426 13.25840627 7 16 C5.82845707 13.71070947 4.66261926 11.41881638 3.5 9.125 C3.16613281 8.47402344 2.83226562 7.82304687 2.48828125 7.15234375 C0 2.2265625 0 2.2265625 0 0 Z" transform="translate(782,376)"/><path fill="#272726" d="M0 0 C13.6332574 -0.3690205 13.6332574 -0.3690205 20 2 C20 2.33 20 2.66 20 3 C13.06697907 3.22731216 6.7831364 2.42002108 0 1 C0 0.67 0 0.34 0 0 Z" transform="translate(459,795)"/><path fill="#474747" d="M0 0 C0 0.66 0 1.32 0 2 C1.98 2 3.96 2 6 2 C6 2.33 6 2.66 6 3 C-0.5705166 3.24794402 -6.56971459 2.32388229 -13 1 C-13 0.67 -13 0.34 -13 0 C-8.37078475 -1.0161692 -4.65537393 -0.83796731 0 0 Z" transform="translate(466,810)"/><path fill="#5A5A5A" d="M0 0 C0.33 0 0.66 0 1 0 C1.33 1.65 1.66 3.3 2 5 C2.33 5 2.66 5 3 5 C2.67 11.27 2.34 17.54 2 24 C1.67 24 1.34 24 1 24 C0.67 16.08 0.34 8.16 0 0 Z" transform="translate(796,477)"/><path fill="#575757" d="M0 0 C0.33 0 0.66 0 1 0 C1.33 1.65 1.66 3.3 2 5 C2.33 5 2.66 5 3 5 C3 6.65 3 8.3 3 10 C2.01 10 1.02 10 0 10 C-0.33 12.97 -0.66 15.94 -1 19 C-1.33 19 -1.66 19 -2 19 C-1.50873071 12.63440427 -1.00344253 6.30735307 0 0 Z" transform="translate(795,545)"/><path fill="#232323" d="M0 0 C0.33 0.66 0.66 1.32 1 2 C-1.97088618 5.99926986 -5.12948725 8.92118304 -9 12 C-9.66 11.67 -10.32 11.34 -11 11 C-10.59007812 10.60167969 -10.18015625 10.20335937 -9.7578125 9.79296875 C-9.21898437 9.26316406 -8.68015625 8.73335937 -8.125 8.1875 C-7.59132813 7.66542969 -7.05765625 7.14335938 -6.5078125 6.60546875 C-4.79223439 4.86740096 -4.79223439 4.86740096 -3 2 C-2.01 1.34 -1.02 0.68 0 0 Z" transform="translate(717,713)"/><path fill="#2E2D2D" d="M0 0 C0 3.67034745 -1.0752892 5.0999431 -3 8.1875 C-3.556875 9.08855469 -4.11375 9.98960937 -4.6875 10.91796875 C-5.120625 11.60503906 -5.55375 12.29210937 -6 13 C-6.93616694 10.47518613 -7.17818983 9.40525028 -6.07421875 6.89453125 C-5.61660156 6.20746094 -5.15898438 5.52039063 -4.6875 4.8125 C-4.23761719 4.11769531 -3.78773438 3.42289063 -3.32421875 2.70703125 C-2 1 -2 1 0 0 Z" transform="translate(760,656)"/><path fill="#505050" d="M0 0 C5.75 -0.125 5.75 -0.125 8 1 C10.0374763 1.22858114 12.08040303 1.41024278 14.125 1.5625 C15.76855469 1.68818359 15.76855469 1.68818359 17.4453125 1.81640625 C18.28835938 1.87699219 19.13140625 1.93757812 20 2 C20 2.33 20 2.66 20 3 C17.60408962 3.02712351 15.20849043 3.0468982 12.8125 3.0625 C12.13896484 3.07087891 11.46542969 3.07925781 10.77148438 3.08789062 C7.04565869 3.10606538 3.6211958 2.89299392 0 2 C0 1.34 0 0.68 0 0 Z" transform="translate(500,560)"/><path fill="#464746" d="M0 0 C0.66 0.33 1.32 0.66 2 1 C1.01 2.485 1.01 2.485 0 4 C-0.66 4 -1.32 4 -2 4 C-2.33 4.99 -2.66 5.98 -3 7 C-5.0625 7.6875 -5.0625 7.6875 -7 8 C-7.33 7.01 -7.66 6.02 -8 5 C-6.71475739 4.13619741 -5.42157581 3.28419631 -4.125 2.4375 C-3.04605469 1.72400391 -3.04605469 1.72400391 -1.9453125 0.99609375 C-1.30335938 0.66738281 -0.66140625 0.33867187 0 0 Z" transform="translate(573,451)"/><path fill="#444" d="M0 0 C0.99 0.33 1.98 0.66 3 1 C2.40075776 5.19469571 1.42500059 9.00999834 0 13 C-1.5 11.625 -1.5 11.625 -3 10 C-3 9.34 -3 8.68 -3 8 C-2.34 8 -1.68 8 -1 8 C-1.020625 7.05125 -1.04125 6.1025 -1.0625 5.125 C-1 2 -1 2 0 0 Z" transform="translate(241,411)"/><path fill="#333232" d="M0 0 C4.77609498 1.64178265 8.79382904 4.26546702 13 7 C10.49281235 7.92399724 9.39934831 8.16892656 6.89453125 7.109375 C6.20746094 6.66078125 5.52039063 6.2121875 4.8125 5.75 C4.11769531 5.31171875 3.42289063 4.8734375 2.70703125 4.421875 C1 3 1 3 0 0 Z" transform="translate(661,267)"/><path fill="#343333" d="M0 0 C1.43739513 -0.02712066 2.87493863 -0.04645067 4.3125 -0.0625 C5.51326172 -0.07990234 5.51326172 -0.07990234 6.73828125 -0.09765625 C9 0 9 0 12 1 C12 1.66 12 2.32 12 3 C12.66 3.33 13.32 3.66 14 4 C9.03083364 3.48594831 4.70973649 2.76615118 0 1 C0 0.67 0 0.34 0 0 Z" transform="translate(583,220)"/><path fill="#313131" d="M0 0 C0.66 0.99 1.32 1.98 2 3 C1.34 4.32 0.68 5.64 0 7 C-0.66 7 -1.32 7 -2 7 C-2.66 8.32 -3.32 9.64 -4 11 C-3.54177532 7.53058454 -3.10868317 4.32604951 -2 1 C-1.34 0.67 -0.68 0.34 0 0 Z" transform="translate(777,621)"/><path fill="#41403F" d="M0 0 C0.99 0.33 1.98 0.66 3 1 C2.01 4.96 1.02 8.92 0 13 C-0.33 13 -0.66 13 -1 13 C-1.2236337 11.58566794 -1.42826476 10.16832382 -1.625 8.75 C-1.74101562 7.96109375 -1.85703125 7.1721875 -1.9765625 6.359375 C-2.00319395 3.67847541 -1.36592084 2.27305911 0 0 Z" transform="translate(482,497)"/><path fill="#434444" d="M0 0 C0.66 0.33 1.32 0.66 2 1 C0.71034824 2.37562854 -0.62689293 3.70766393 -2 5 C-2.66 5 -3.32 5 -4 5 C-4.66 6.32 -5.32 7.64 -6 9 C-6.66 8.67 -7.32 8.34 -8 8 C-7.9375 6.25 -7.9375 6.25 -7 4 C-4.74876994 2.27481113 -2.59865097 1.23093993 0 0 Z" transform="translate(556,461)"/><path fill="#444" d="M0 0 C0.79921875 0.00902344 1.5984375 0.01804687 2.421875 0.02734375 C3.02515625 0.03894531 3.6284375 0.05054688 4.25 0.0625 C1.62109503 1.45323768 -0.87122047 2.50219204 -3.75 3.25 C-4.41 3.42917969 -5.07 3.60835937 -5.75 3.79296875 C-8.01540976 4.09826811 -9.585092 3.74386613 -11.75 3.0625 C-10.76 3.0625 -9.77 3.0625 -8.75 3.0625 C-8.75 2.4025 -8.75 1.7425 -8.75 1.0625 C-5.75519083 0.1901588 -3.11424089 -0.04579766 0 0 Z" transform="translate(588.75,804.9375)"/><path fill="#202020" d="M0 0 C0.33 0 0.66 0 1 0 C1.31985731 6.71700347 0.4793824 11.75726932 -2 18 C-2.33 18 -2.66 18 -3 18 C-2.51679152 11.7945858 -1.66681876 6.00054754 0 0 Z" transform="translate(233,441)"/><path fill="#2F2E2E" d="M0 0 C0.33 0 0.66 0 1 0 C0.54177532 3.46941546 0.10868317 6.67395049 -1 10 C-2.32 10 -3.64 10 -5 10 C-4.67 8.68 -4.34 7.36 -4 6 C-3.34 6 -2.68 6 -2 6 C-1.34 4.02 -0.68 2.04 0 0 Z" transform="translate(250,392)"/><path fill="#353434" d="M0 0 C3.95677402 1.67401978 6.84464213 4.13149285 10 7 C10 7.66 10 8.32 10 9 C6.43179569 8.44149846 5.00428942 7.27801323 2.75 4.5 C1.96882812 3.55640625 1.96882812 3.55640625 1.171875 2.59375 C0 1 0 1 0 0 Z" transform="translate(700,295)"/><path fill="#434342" d="M0 0 C2.72426311 2.35277269 3.8141763 4.62496331 5 8 C4.01 8.33 3.02 8.66 2 9 C0.4375 7.3125 0.4375 7.3125 -1 5 C-0.6875 2.25 -0.6875 2.25 0 0 Z" transform="translate(265,657)"/><path fill="#2C2D2C" d="M0 0 C2.40034102 3.60051153 4.32187705 6.96144535 3.625 11.375 C3.41875 11.91125 3.2125 12.4475 3 13 C3 12.34 3 11.68 3 11 C2.34 11 1.68 11 1 11 C-0.28317892 7.15046324 -0.06643637 4.05261865 0 0 Z" transform="translate(220,591)"/><path fill="#4E4E4E" d="M0 0 C-2.43840236 2.43840236 -4.85240898 3.62292893 -8 5 C-8.66 4.67 -9.32 4.34 -10 4 C-9.67 2.68 -9.34 1.36 -9 0 C-2.25 -1.125 -2.25 -1.125 0 0 Z" transform="translate(641,432)"/><path fill="#2A2B29" d="M0 0 C2.68433048 2.45091043 3.91789741 4.28241384 4.09765625 8.04296875 C4.06510417 10.02864583 4.03255208 12.01432292 4 14 C1.01520806 9.52281208 0 5.36175907 0 0 Z" transform="translate(802,427)"/><path fill="#2D2D2C" d="M0 0 C-0.99 0 -1.98 0 -3 0 C-3 0.66 -3 1.32 -3 2 C-5.75078884 2.91692961 -7.35948913 3.10886083 -10.1875 3.0625 C-12.0746875 3.0315625 -12.0746875 3.0315625 -14 3 C-9.7368213 0.15788087 -5.03577274 -2.0143091 0 0 Z" transform="translate(603,802)"/><path fill="#30302E" d="M0 0 C3.63559661 3.43361902 6.36113346 6.7973607 9 11 C4.70073737 9.40768051 2.64994267 6.60686641 0 3 C0 2.01 0 1.02 0 0 Z" transform="translate(275,700)"/><path fill="#2D2E2D" d="M0 0 C2.97069541 2.54631035 4.4775751 5.42230149 6 9 C5.67 9.66 5.34 10.32 5 11 C2.65808437 8.8709858 1.16445046 6.95591271 0 4 C0 2.68 0 1.36 0 0 Z" transform="translate(239,643)"/><path fill="#4A4A4A" d="M0 0 C0.66 1.32 1.32 2.64 2 4 C2.99 3.67 3.98 3.34 5 3 C6.06775224 4.96466413 7.06553465 6.96855359 8 9 C7.67 9.66 7.34 10.32 7 11 C6 10 5 9 4 8 C3.46375 7.54625 2.9275 7.0925 2.375 6.625 C0.5933412 4.51940324 0.36419948 2.69507616 0 0 Z" transform="translate(249,631)"/><path fill="#2D2D2D" d="M0 0 C1.18771723 3.42943519 0.80226223 5.37784675 -0.4375 8.75 C-0.86869141 9.94882812 -0.86869141 9.94882812 -1.30859375 11.171875 C-1.65083984 12.07679688 -1.65083984 12.07679688 -2 13 C-2.33 13 -2.66 13 -3 13 C-3.31563182 7.73946963 -2.66590937 4.55426184 0 0 Z" transform="translate(788,587)"/><path fill="#434545" d="M0 0 C0.763125 0.20625 1.52625 0.4125 2.3125 0.625 C0.89730285 2.6593459 -0.23732123 3.52910393 -2.66796875 4.046875 C-4.66926954 4.28773952 -6.6784944 4.46032741 -8.6875 4.625 C-3.77052239 -0.5261194 -3.77052239 -0.5261194 0 0 Z" transform="translate(659.6875,402.375)"/><path fill="#2F2F2E" d="M0 0 C4.06540996 1.35513665 4.97300269 3.30796918 7 7 C6.609375 9.19921875 6.609375 9.19921875 6 11 C4.9944239 9.54550599 3.99569565 8.08627557 3 6.625 C2.443125 5.81289063 1.88625 5.00078125 1.3125 4.1640625 C0 2 0 2 0 0 Z" transform="translate(766,348)"/><path fill="#323130" d="M0 0 C4.55015893 1.51671964 6.50057264 5.16891053 9 9 C8.01 9 7.02 9 6 9 C4.62131719 7.37064759 3.28725907 5.70250393 2 4 C1.34 3.67 0.68 3.34 0 3 C0 2.01 0 1.02 0 0 Z" transform="translate(718,312)"/><path fill="#424242" d="M0 0 C0.66 0.33 1.32 0.66 2 1 C0.35 2.98 -1.3 4.96 -3 7 C-4.65 6.67 -6.3 6.34 -8 6 C-5.63404067 3.38499232 -3.13950774 1.61000397 0 0 Z" transform="translate(355,252)"/><path fill="#2C2C2B" d="M0 0 C5.75 3.625 5.75 3.625 8 7 C7.67 7.99 7.34 8.98 7 10 C5.82739389 8.71372289 4.6620717 7.42080217 3.5 6.125 C2.8503125 5.40570312 2.200625 4.68640625 1.53125 3.9453125 C0 2 0 2 0 0 Z" transform="translate(280,682)"/><path fill="#454444" d="M0 0 C3.6 5.4 3.6 5.4 5 8 C4.67 8.66 4.34 9.32 4 10 C3.01 10 2.02 10 1 10 C0.67 6.7 0.34 3.4 0 0 Z" transform="translate(482,523)"/><path fill="#464646" d="M0 0 C4.3177458 0.50797009 8.03302114 1.19682779 12 3 C11.01 4.485 11.01 4.485 10 6 C9.34 6 8.68 6 8 6 C8 5.34 8 4.68 8 4 C6.35 3.67 4.7 3.34 3 3 C3 2.34 3 1.68 3 1 C2.01 0.67 1.02 0.34 0 0 Z" transform="translate(522,467)"/><path fill="#2D2D2D" d="M0 0 C1.15957207 3.47871621 0.77456651 4.34219645 -0.4375 7.6875 C-0.72496094 8.49574219 -1.01242188 9.30398438 -1.30859375 10.13671875 C-1.65083984 11.05904297 -1.65083984 11.05904297 -2 12 C-2.33 12 -2.66 12 -3 12 C-3.2954439 6.97745369 -2.98514628 4.10457614 0 0 Z" transform="translate(224,417)"/><path fill="#474747" d="M0 0 C0.33 0 0.66 0 1 0 C1 2.31 1 4.62 1 7 C1.78375 7.12375 2.5675 7.2475 3.375 7.375 C6 8 6 8 8 10 C3.597254 11.30892449 3.597254 11.30892449 1.1875 10.0625 C-0.70943762 6.76781888 -0.18480076 3.75761536 0 0 Z" transform="translate(637,359)"/><path fill="#434242" d="M0 0 C0.66 0 1.32 0 2 0 C1.67 2.64 1.34 5.28 1 8 C0.34 7.67 -0.32 7.34 -1 7 C-1.66 7.66 -2.32 8.32 -3 9 C-2.67 7.02 -2.34 5.04 -2 3 C-1.34 3 -0.68 3 0 3 C0 2.01 0 1.02 0 0 Z" transform="translate(803,590)"/><path fill="#323232" d="M0 0 C-1.44077046 3.36179774 -3.24750021 5.59156268 -6 8 C-6.66 8 -7.32 8 -8 8 C-6.48291727 4.46014029 -4.24676932 0 0 0 Z" transform="translate(601,495)"/><path fill="#313231" d="M0 0 C0.99 0.495 0.99 0.495 2 1 C2 1.66 2 2.32 2 3 C2.66 3 3.32 3 4 3 C6 6 6 6 5.625 8.1875 C5.41875 8.785625 5.2125 9.38375 5 10 C4.15801693 8.90241493 3.32669329 7.79664683 2.5 6.6875 C2.0359375 6.07261719 1.571875 5.45773437 1.09375 4.82421875 C0 3 0 3 0 0 Z" transform="translate(549,483)"/><path fill="#2B2B2B" d="M0 0 C-0.78375 0.45375 -1.5675 0.9075 -2.375 1.375 C-5.03698031 2.88428742 -5.03698031 2.88428742 -7 5 C-7.99 4.67 -8.98 4.34 -10 4 C-4.4 -2.2 -4.4 -2.2 0 0 Z" transform="translate(629,422)"/><path fill="#4C4B4B" d="M0 0 C0 0.33 0 0.66 0 1 C-1.41377782 1.36552803 -2.83120576 1.71695495 -4.25 2.0625 C-5.03890625 2.25972656 -5.8278125 2.45695313 -6.640625 2.66015625 C-9.10394822 3.01497267 -10.65604132 2.76877544 -13 2 C-12.34 2 -11.68 2 -11 2 C-11 1.34 -11 0.68 -11 0 C-7.18243176 -1.37432457 -3.92744671 -0.67975039 0 0 Z" transform="translate(452,234)"/><path fill="#5F5E5F" d="M0 0 C0 0.66 0 1.32 0 2 C1.98 2 3.96 2 6 2 C6 2.33 6 2.66 6 3 C0.72 2.67 -4.56 2.34 -10 2 C-10 1.67 -10 1.34 -10 1 C-3.375 0 -3.375 0 0 0 Z" transform="translate(482,812)"/><path fill="#4F4F4F" d="M0 0 C-0.66 0 -1.32 0 -2 0 C-1.67 0.99 -1.34 1.98 -1 3 C-4.63 2.67 -8.26 2.34 -12 2 C-12 1.67 -12 1.34 -12 1 C-10.56496445 0.63597631 -9.12683494 0.28413409 -7.6875 -0.0625 C-6.88699219 -0.25972656 -6.08648438 -0.45695313 -5.26171875 -0.66015625 C-3 -1 -3 -1 0 0 Z" transform="translate(590,789)"/><path fill="#444" d="M0 0 C3.37503669 1.1858237 5.64722731 2.27573689 8 5 C5.69 5 3.38 5 1 5 C0.67 3.35 0.34 1.7 0 0 Z" transform="translate(363,757)"/><path fill="#2A2A29" d="M0 0 C1.13643966 3.40931897 0.86747764 4.00335456 -0.4375 7.1875 C-0.86869141 8.26064453 -0.86869141 8.26064453 -1.30859375 9.35546875 C-1.53675781 9.89816406 -1.76492188 10.44085937 -2 11 C-2.33 11 -2.66 11 -3 11 C-2.88590407 9.54077307 -2.75834456 8.08259402 -2.625 6.625 C-2.55539062 5.81289063 -2.48578125 5.00078125 -2.4140625 4.1640625 C-2 2 -2 2 0 0 Z" transform="translate(784,601)"/><path fill="#454444" d="M0 0 C2.4375 0.75 2.4375 0.75 5 2 C5.8125 4.125 5.8125 4.125 6 6 C4.02 5.34 2.04 4.68 0 4 C0 2.66666667 0 1.33333333 0 0 Z" transform="translate(486,552)"/><path fill="#313432" d="M0 0 C-1.28524261 0.86380259 -2.57842419 1.71580369 -3.875 2.5625 C-4.59429688 3.03816406 -5.31359375 3.51382812 -6.0546875 4.00390625 C-6.69664062 4.33261719 -7.33859375 4.66132813 -8 5 C-8.66 4.67 -9.32 4.34 -10 4 C-4.75 -1.425 -4.75 -1.425 0 0 Z" transform="translate(610,433)"/><path fill="#434343" d="M0 0 C0.66 0.33 1.32 0.66 2 1 C-1.07999946 4.67230705 -3.2482602 5.56802365 -8 6 C-5.63404067 3.38499232 -3.13950774 1.61000397 0 0 Z" transform="translate(640,412)"/><path fill="#444544" d="M0 0 C0.66 0.33 1.32 0.66 2 1 C1.01 2.485 1.01 2.485 0 4 C-0.66 4 -1.32 4 -2 4 C-2.33 4.99 -2.66 5.98 -3 7 C-3.66 6.67 -4.32 6.34 -5 6 C-5 5.01 -5 4.02 -5 3 C-2.625 1.25 -2.625 1.25 0 0 Z" transform="translate(669,395)"/><path fill="#4E4F49" d="M0 0 C-0.33 0.66 -0.66 1.32 -1 2 C-4.375 2.1875 -4.375 2.1875 -8 2 C-8.66 1.01 -9.32 0.02 -10 -1 C-6.06329512 -2.31223496 -3.87511856 -1.24296256 0 0 Z" transform="translate(700,384)"/><path fill="#454645" d="M0 0 C0.66 0.66 1.32 1.32 2 2 C1.625 4.625 1.625 4.625 1 7 C-0.32 7.33 -1.64 7.66 -3 8 C-2.37240135 5.07120629 -1.41377341 2.63904371 0 0 Z" transform="translate(244,367)"/><path fill="#282927" d="M0 0 C0.99 0.33 1.98 0.66 3 1 C0.69 3.31 -1.62 5.62 -4 8 C-4.66 7.67 -5.32 7.34 -6 7 C-4.02 4.69 -2.04 2.38 0 0 Z" transform="translate(304,290)"/><path fill="#4C4D4D" d="M0 0 C-0.66 0.66 -1.32 1.32 -2 2 C-0.68 2.66 0.64 3.32 2 4 C-0.64 4 -3.28 4 -6 4 C-6.33 3.01 -6.66 2.02 -7 1 C-4.53721199 -0.231394 -2.7204945 -0.07159196 0 0 Z" transform="translate(514,276)"/><path fill="#484848" d="M0 0 C4.95 0.99 4.95 0.99 10 2 C6.23312136 3.88343932 4.97041037 4.22057835 1 4 C0.67 2.68 0.34 1.36 0 0 Z" transform="translate(595,222)"/><path fill="#2B2B2B" d="M0 0 C2.31 0 4.62 0 7 0 C7 0.66 7 1.32 7 2 C7.66 2 8.32 2 9 2 C8.67 2.99 8.34 3.98 8 5 C5.36 3.68 2.72 2.36 0 1 C0 0.67 0 0.34 0 0 Z" transform="translate(386,771)"/><path fill="#2B2B2B" d="M0 0 C0.33 0 0.66 0 1 0 C0.50769231 6.4 0.50769231 6.4 -2.0625 9.4375 C-2.701875 9.953125 -3.34125 10.46875 -4 11 C-3.52269162 9.5410574 -3.04308958 8.08286504 -2.5625 6.625 C-2.29566406 5.81289063 -2.02882813 5.00078125 -1.75390625 4.1640625 C-1 2 -1 2 0 0 Z" transform="translate(791,627)"/><path fill="#444343" d="M0 0 C0.99 0.33 1.98 0.66 3 1 C-0.44615385 5.8 -0.44615385 5.8 -3.25 6.8125 C-4.11625 6.9053125 -4.11625 6.9053125 -5 7 C-5.33 6.34 -5.66 5.68 -6 5 C-5.195625 4.54625 -4.39125 4.0925 -3.5625 3.625 C-0.91143428 2.25274335 -0.91143428 2.25274335 0 0 Z" transform="translate(532,537)"/><path fill="#1A1A1A" d="M0 0 C0.66 0 1.32 0 2 0 C2.16702456 4.34263862 2.12999997 7.20960634 0 11 C-0.19491452 9.54263913 -0.38069358 8.08405407 -0.5625 6.625 C-0.66691406 5.81289063 -0.77132812 5.00078125 -0.87890625 4.1640625 C-1 2 -1 2 0 0 Z" transform="translate(544,512)"/><path fill="#323232" d="M0 0 C3.99455527 0.61454696 6.74466336 2.70646737 10 5 C9.01 5.33 8.02 5.66 7 6 C5.17578125 5.0390625 5.17578125 5.0390625 3.3125 3.625 C2.68988281 3.16351563 2.06726563 2.70203125 1.42578125 2.2265625 C0.95527344 1.82179688 0.48476563 1.41703125 0 1 C0 0.67 0 0.34 0 0 Z" transform="translate(524,484)"/><path fill="#2D2D2D" d="M0 0 C-2.64 1.98 -5.28 3.96 -8 6 C-8.66 5.67 -9.32 5.34 -10 5 C-5.16129032 -1.29032258 -5.16129032 -1.29032258 0 0 Z" transform="translate(491,473)"/><path fill="#2A2A29" d="M0 0 C0.99 0.33 1.98 0.66 3 1 C-0.465 3.97 -0.465 3.97 -4 7 C-4.33 6.01 -4.66 5.02 -5 4 C-2.6875 1.9375 -2.6875 1.9375 0 0 Z" transform="translate(630,443)"/><path fill="#40403F" d="M0 0 C2.97 0.495 2.97 0.495 6 1 C3.37801226 3.15377564 1.35595828 4.40072174 -2 5 C-1.34 3.35 -0.68 1.7 0 0 Z" transform="translate(380,255)"/><path fill="#4B4B4B" d="M0 0 C-2.70188004 1.80125336 -4.93057703 3.00243753 -8 4 C-8.99 3.67 -9.98 3.34 -11 3 C-10.34 3 -9.68 3 -9 3 C-9 2.34 -9 1.68 -9 1 C-5.8035914 -0.06546953 -3.34252724 -0.07427838 0 0 Z" transform="translate(621,796)"/><path fill="#343434" d="M0 0 C1.56654025 3.03035655 2.6571055 5.57105498 3 9 C2.0625 11.3125 2.0625 11.3125 1 13 C0.1276588 10.00519083 -0.10829766 7.36424089 -0.0625 4.25 C-0.05347656 3.45078125 -0.04445312 2.6515625 -0.03515625 1.828125 C-0.02355469 1.22484375 -0.01195312 0.6215625 0 0 Z" transform="translate(217,578)"/><path fill="#282928" d="M0 0 C2.3129482 2.3129482 2.49580975 3.47904875 3.125 6.625 C3.29257812 7.44226563 3.46015625 8.25953125 3.6328125 9.1015625 C3.81457031 10.04128906 3.81457031 10.04128906 4 11 C1.29727467 8.12835434 0.05208163 6.69008159 -0.25 2.6875 C-0.1675 1.800625 -0.085 0.91375 0 0 Z" transform="translate(782,415)"/><path fill="#40403F" d="M0 0 C1.65 1.65 3.3 3.3 5 5 C3.68 5.33 2.36 5.66 1 6 C-0.0625 4.125 -0.0625 4.125 -1 2 C-0.67 1.34 -0.34 0.68 0 0 Z" transform="translate(748,321)"/><path fill="#434444" d="M0 0 C0.763125 0.20625 1.52625 0.4125 2.3125 0.625 C0.13825883 3.12537734 -1.41795798 4.06128586 -4.6875 4.625 C-5.0175 3.635 -5.3475 2.645 -5.6875 1.625 C-2.6875 -0.375 -2.6875 -0.375 0 0 Z" transform="translate(653.6875,762.375)"/><path fill="#333433" d="M0 0 C2.46800047 1.15173355 4.04783565 2.04783565 6 4 C6 4.99 6 5.98 6 7 C5.34 7 4.68 7 4 7 C0 2.52941176 0 2.52941176 0 0 Z" transform="translate(293,698)"/><path fill="#424342" d="M0 0 C2.32472205 2.85306797 3.7508258 5.54074837 5 9 C2 8 2 8 0.25 5.0625 C-0.1625 4.051875 -0.575 3.04125 -1 2 C-0.67 1.34 -0.34 0.68 0 0 Z" transform="translate(259,646)"/><path fill="#313131" d="M0 0 C0.99 0.33 1.98 0.66 3 1 C1.68 3.31 0.36 5.62 -1 8 C-1.93065133 5.39417629 -2.14917407 4.35801776 -1.0625 1.75 C-0.711875 1.1725 -0.36125 0.595 0 0 Z" transform="translate(764,646)"/><path fill="#464746" d="M0 0 C0.66 0.33 1.32 0.66 2 1 C2 1.99 2 2.98 2 4 C-0.375 4.625 -0.375 4.625 -3 5 C-3.66 4.34 -4.32 3.68 -5 3 C-2.625 1.4375 -2.625 1.4375 0 0 Z" transform="translate(587,443)"/><path fill="#424242" d="M0 0 C2.26185454 2.26185454 3.03921617 3.96983561 4 7 C3.67 7.99 3.34 8.98 3 10 C3 9.34 3 8.68 3 8 C2.34 8 1.68 8 1 8 C-0.35439668 5.29120665 -0.06501451 2.99066732 0 0 Z" transform="translate(792,395)"/><path fill="#414140" d="M0 0 C2.50037734 2.17424117 3.43628586 3.73045798 4 7 C3.01 7.33 2.02 7.66 1 8 C0.17361624 5.10765685 0 3.11257569 0 0 Z" transform="translate(780,370)"/><path fill="#30302F" d="M0 0 C2.5 2.3125 2.5 2.3125 5 5 C5 5.99 5 6.98 5 8 C2.5 5.6875 2.5 5.6875 0 3 C0 2.01 0 1.02 0 0 Z" transform="translate(738,334)"/><path fill="#413F3F" d="M0 0 C2.475 0.99 2.475 0.99 5 2 C5 2.66 5 3.32 5 4 C6.32 4.33 7.64 4.66 9 5 C7.35 5.33 5.7 5.66 4 6 C4 5.34 4 4.68 4 4 C2.68 3.34 1.36 2.68 0 2 C0 1.34 0 0.68 0 0 Z" transform="translate(505,319)"/><path fill="#4C4C4B" d="M0 0 C0.66 0.33 1.32 0.66 2 1 C-0.06756277 3.7972908 -1.14440371 4.02692273 -4.6875 4.6875 C-5.780625 4.790625 -6.87375 4.89375 -8 5 C-6.35197949 1.70395897 -3.32254422 1.22409524 0 0 Z" transform="translate(376,241)"/><path fill="#2B2B2A" d="M0 0 C3.68754757 0.49831724 5.60490662 1.10067643 8 4 C7.01 4.495 7.01 4.495 6 5 C3.98079663 3.69593116 1.98075027 2.36176581 0 1 C0 0.67 0 0.34 0 0 Z" transform="translate(356,754)"/><path fill="#535353" d="M0 0 C0.33 0 0.66 0 1 0 C1.33 3.3 1.66 6.6 2 10 C1.67 9.01 1.34 8.02 1 7 C0.01 6.67 -0.98 6.34 -2 6 C-1.33333333 4 -0.66666667 2 0 0 Z" transform="translate(810,456)"/><path fill="#595959" d="M0 0 C0.33 0 0.66 0 1 0 C1.36923077 7.50769231 1.36923077 7.50769231 -0.5 10 C-0.995 10.33 -1.49 10.66 -2 11 C-2.66 10.67 -3.32 10.34 -4 10 C-3.34 9.01 -2.68 8.02 -2 7 C-1.34 7 -0.68 7 0 7 C0 4.69 0 2.38 0 0 Z" transform="translate(386,359)"/><path fill="#2F2E2E" d="M0 0 C0.33 0.66 0.66 1.32 1 2 C-0.98 4.97 -0.98 4.97 -3 8 C-3.75 6.25 -3.75 6.25 -4 4 C-2.0625 1.75 -2.0625 1.75 0 0 Z" transform="translate(256,349)"/><path fill="#4D4D4D" d="M0 0 C0.33 0 0.66 0 1 0 C1 1.65 1 3.3 1 5 C1.99 5.33 2.98 5.66 4 6 C3.67 7.32 3.34 8.64 3 10 C0.64551835 7.44931155 0.01672076 6.28982642 -0.1875 2.75 C-0.125625 1.8425 -0.06375 0.935 0 0 Z" transform="translate(348,339)"/><path fill="#424241" d="M0 0 C2.97 0.495 2.97 0.495 6 1 C5.67 1.66 5.34 2.32 5 3 C2.67843403 3.40729228 0.3431213 3.74438677 -2 4 C-1.34 2.68 -0.68 1.36 0 0 Z" transform="translate(337,280)"/><path fill="#2D2D2D" d="M0 0 C1.32 0.33 2.64 0.66 4 1 C0.25 4 0.25 4 -2 4 C-2 4.66 -2 5.32 -2 6 C-2.66 5.67 -3.32 5.34 -4 5 C-2.68 3.35 -1.36 1.7 0 0 Z" transform="translate(325,272)"/><path fill="#474747" d="M0 0 C1.32 0.33 2.64 0.66 4 1 C2.68 1 1.36 1 0 1 C0 0.67 0 0.34 0 0 Z" transform="translate(523,230)"/><path fill="#666" d="M0 0 C0.33 0 0.66 0 1 0 C1 1.65 1 3.3 1 5 C0.67 5 0.34 5 0 5 C0 3.35 0 1.7 0 0 Z" transform="translate(792,552)"/><path fill="#333" d="M0 0 C0.33 0 0.66 0 1 0 C1 1.65 1 3.3 1 5 C0.67 5 0.34 5 0 5 C0 3.35 0 1.7 0 0 Z" transform="translate(792,465)"/><path fill="#666" d="M0 0 C0.33 1.32 0.66 2.64 1 4 C0.34 3.01 -0.32 2.02 -1 1 C-0.67 0.67 -0.34 0.34 0 0 Z" transform="translate(785,434)"/><path fill="#2A2A2A" d="M0 0 C0.99 1.485 0.99 1.485 2 3 C1.01 3.495 1.01 3.495 0 4 C0 2.68 0 1.36 0 0 Z" transform="translate(248,353)"/><path fill="#333" d="M0 0 C0.33 0.99 0.66 1.98 1 3 C0.34 3 -0.32 3 -1 3 C-0.67 2.01 -0.34 1.02 0 0 Z" transform="translate(657,268)"/><path fill="#222" d="M0 0 C1.65 0 3.3 0 5 0 C5 0.33 5 0.66 5 1 C3.35 1 1.7 1 0 1 C0 0.67 0 0.34 0 0 Z" transform="translate(496,230)"/><path fill="#4A4A4A" d="M0 0 C1 4 1 4 1 4 Z" transform="translate(793,546)"/><path fill="#646464" d="M0 0 C4 1 4 1 4 1 Z" transform="translate(513,464)"/><path fill="#444" d="M0 0 C0.99 0 1.98 0 3 0 C2.67 0.66 2.34 1.32 2 2 C1.34 1.34 0.68 0.68 0 0 Z" transform="translate(626,253)"/><path fill="#1C1C1C" d="M0 0 C0.66 0.66 1.32 1.32 2 2 C1.34 2 0.68 2 0 2 C0 1.34 0 0.68 0 0 Z" transform="translate(428,806)"/><path fill="#000" d="M0 0 C0.99 0.495 0.99 0.495 2 1 C1.01 1.495 1.01 1.495 0 2 C0 1.34 0 0.68 0 0 Z" transform="translate(595,806)"/><path fill="#404040" d="M0 0 C3 1 3 1 3 1 Z" transform="translate(405,799)"/><path fill="#000" d="M0 0 C3 1 3 1 3 1 Z" transform="translate(467,793)"/><path fill="#2A2A2A" d="M0 0 C0.66 0 1.32 0 2 0 C1.67 0.66 1.34 1.32 1 2 C0.67 1.34 0.34 0.68 0 0 Z" transform="translate(224,618)"/><path fill="#555" d="M0 0 C0.66 0.66 1.32 1.32 2 2 C1.34 2 0.68 2 0 2 C0 1.34 0 0.68 0 0 Z" transform="translate(569,498)"/><path fill="#2A2A2A" transform="translate(0,0)"/><path fill="#1C1C1C" transform="translate(0,0)"/><path fill="#404040" transform="translate(0,0)"/><path fill="#000" transform="translate(0,0)"/><path fill="#2A2A2A" d="M0 0 C0.66 0.66 1.32 1.32 2 2 C1.34 2 0.68 2 0 2 C0 1.34 0 0.68 0 0 Z" transform="translate(784,441)"/><path fill="#585858" transform="translate(0,0)"/><path fill="#474747" d="M0 0 C3 1 3 1 3 1 Z" transform="translate(483,231)"/><path fill="#2A2A2A" d="M0 0 C3 1 3 1 3 1 Z" transform="translate(530,230)"/><path fill="#6A6A6A" d="M0 0 C2 1 2 1 2 1 Z" transform="translate(467,814)"/><path fill="#6A6A6A" d="M0 0 C2 1 2 1 2 1 Z" transform="translate(560,792)"/><path fill="#404040" d="M0 0 C2 1 2 1 2 1 Z" transform="translate(356,775)"/><path fill="#404040" transform="translate(0,0)"/><path fill="gray" d="M0 0 C2 1 2 1 2 1 Z" transform="translate(290,723)"/><path fill="#000" transform="translate(0,0)"/><path fill="#404040" transform="translate(0,0)"/><path fill="#000" transform="translate(0,0)"/><path fill="#2A2A2A" transform="translate(0,0)"/><path fill="#202020" transform="translate(0,0)"/><path fill="#404040" d="M0 0 C2 1 2 1 2 1 Z" transform="translate(787,577)"/><path fill="#404040" transform="translate(0,0)"/><path fill="#000" transform="translate(0,0)"/><path fill="#404040" transform="translate(0,0)"/><path fill="#000" transform="translate(0,0)"/><path fill="#000" transform="translate(0,0)"/><path fill="#404040" d="M0 0 C2 1 2 1 2 1 Z" transform="translate(564,506)"/><path fill="#6A6A6A" transform="translate(0,0)"/><path fill="#000" d="M0 0 C2 1 2 1 2 1 Z" transform="translate(520,486)"/><path fill="#2A2A2A" transform="translate(0,0)"/><path fill="#404040" d="M0 0 C2 1 2 1 2 1 Z" transform="translate(564,478)"/><path fill="#606060" transform="translate(0,0)"/><path fill="#404040" transform="translate(0,0)"/><path fill="#000" transform="translate(0,0)"/><path fill="#2A2A2A" d="M0 0 C2 1 2 1 2 1 Z" transform="translate(499,465)"/><path fill="#000" transform="translate(0,0)"/><path fill="gray" d="M0 0 C2 1 2 1 2 1 Z" transform="translate(574,448)"/><path fill="#404040" d="M0 0 C2 1 2 1 2 1 Z" transform="translate(587,441)"/><path fill="#404040" transform="translate(0,0)"/><path fill="#000" transform="translate(0,0)"/><path fill="#202020" transform="translate(0,0)"/><path fill="#000" d="M0 0 C2 1 2 1 2 1 Z" transform="translate(630,416)"/><path fill="#2A2A2A" transform="translate(0,0)"/><path fill="#000" transform="translate(0,0)"/><path fill="#000" d="M0 0 C2 1 2 1 2 1 Z" transform="translate(259,336)"/><path fill="#202020" d="M0 0 C2 1 2 1 2 1 Z" transform="translate(511,325)"/><path fill="#000" transform="translate(0,0)"/><path fill="#404040" d="M0 0 C2 1 2 1 2 1 Z" transform="translate(289,299)"/><path fill="#000" transform="translate(0,0)"/><path fill="#000" d="M0 0 C2 1 2 1 2 1 Z" transform="translate(672,279)"/><path fill="#393939" d="M0 0 C2 1 2 1 2 1 Z" transform="translate(660,270)"/><path fill="#404040" d="M0 0 C2 1 2 1 2 1 Z" transform="translate(363,269)"/><path fill="#404040" transform="translate(0,0)"/><path fill="#000" d="M0 0 C2 1 2 1 2 1 Z" transform="translate(352,250)"/><path fill="#000" d="M0 0 C2 1 2 1 2 1 Z" transform="translate(609,246)"/><path fill="#404040" d="M0 0 C2 1 2 1 2 1 Z" transform="translate(436,239)"/><path fill="#404040" d="M0 0 C2 1 2 1 2 1 Z" transform="translate(540,231)"/><path fill="gray" d="M0 0 C2 1 2 1 2 1 Z" transform="translate(537,231)"/><path fill="#000" d="M0 0 C2 1 2 1 2 1 Z" transform="translate(520,230)"/><path fill="#6A6A6A" d="M0 0 C2 1 2 1 2 1 Z" transform="translate(491,230)"/><path fill="#000" d="M0 0 C2 1 2 1 2 1 Z" transform="translate(513,229)"/><path fill="#2A2A2A" d="M0 0 C2 1 2 1 2 1 Z" transform="translate(443,216)"/><path fill="#404040" d="M0 0 C2 1 2 1 2 1 Z" transform="translate(504,208)"/><path fill="#000" transform="translate(0,0)"/><path fill="gray" transform="translate(0,0)"/><path fill="#000" transform="translate(0,0)"/><path fill="gray" transform="translate(0,0)"/><path fill="#000" transform="translate(0,0)"/><path fill="#000" transform="translate(0,0)"/><path fill="#000" transform="translate(0,0)"/><path fill="#000" transform="translate(0,0)"/><path fill="#000" transform="translate(0,0)"/><path fill="#555" transform="translate(0,0)"/><path fill="gray" transform="translate(0,0)"/><path fill="#000" transform="translate(0,0)"/><path fill="#000" transform="translate(0,0)"/><path fill="#000" transform="translate(0,0)"/><path fill="#000" transform="translate(0,0)"/><path fill="#000" transform="translate(0,0)"/><path fill="#000" transform="translate(0,0)"/><path fill="gray" transform="translate(0,0)"/><path fill="#000" transform="translate(0,0)"/><path fill="#555" transform="translate(0,0)"/><path fill="#000" transform="translate(0,0)"/><path fill="#000" transform="translate(0,0)"/><path fill="#000" transform="translate(0,0)"/><path fill="#404040" transform="translate(0,0)"/><path fill="gray" transform="translate(0,0)"/><path fill="#000" transform="translate(0,0)"/><path fill="gray" transform="translate(0,0)"/><path fill="gray" transform="translate(0,0)"/><path fill="gray" transform="translate(0,0)"/><path fill="#000" transform="translate(0,0)"/><path fill="#555" transform="translate(0,0)"/><path fill="gray" transform="translate(0,0)"/><path fill="#000" transform="translate(0,0)"/><path fill="#000" transform="translate(0,0)"/><path fill="#000" transform="translate(0,0)"/><path fill="#000" transform="translate(0,0)"/><path fill="#000" transform="translate(0,0)"/><path fill="#000" transform="translate(0,0)"/><path fill="#000" transform="translate(0,0)"/><path fill="gray" transform="translate(0,0)"/><path fill="#000" transform="translate(0,0)"/><path fill="#000" transform="translate(0,0)"/><path fill="gray" transform="translate(0,0)"/><path fill="#000" transform="translate(0,0)"/><path fill="#000" transform="translate(0,0)"/><path fill="#555" transform="translate(0,0)"/><path fill="gray" transform="translate(0,0)"/><path fill="#000" transform="translate(0,0)"/><path fill="#000" transform="translate(0,0)"/><path fill="#000" transform="translate(0,0)"/><path fill="#000" transform="translate(0,0)"/><path fill="#000" transform="translate(0,0)"/><path fill="#000" transform="translate(0,0)"/><path fill="#000" transform="translate(0,0)"/><path fill="gray" transform="translate(0,0)"/><path fill="gray" transform="translate(0,0)"/><path fill="#000" transform="translate(0,0)"/><path fill="#000" transform="translate(0,0)"/><path fill="gray" transform="translate(0,0)"/><path fill="#000" transform="translate(0,0)"/><path fill="#000" transform="translate(0,0)"/><path fill="gray" transform="translate(0,0)"/><path fill="#000" transform="translate(0,0)"/><path fill="#000" transform="translate(0,0)"/><path fill="#000" transform="translate(0,0)"/><path fill="gray" transform="translate(0,0)"/><path fill="#000" transform="translate(0,0)"/><path fill="gray" transform="translate(0,0)"/><path fill="#000" transform="translate(0,0)"/><path fill="#000" transform="translate(0,0)"/><path fill="#000" transform="translate(0,0)"/><path fill="#000" transform="translate(0,0)"/><path fill="gray" transform="translate(0,0)"/><path fill="#555" transform="translate(0,0)"/><path fill="#000" transform="translate(0,0)"/><path fill="gray" transform="translate(0,0)"/><path fill="#000" transform="translate(0,0)"/><path fill="gray" transform="translate(0,0)"/><path fill="#555" transform="translate(0,0)"/><path fill="#000" transform="translate(0,0)"/><path fill="gray" transform="translate(0,0)"/><path fill="#555" transform="translate(0,0)"/><path fill="#555" transform="translate(0,0)"/><path fill="gray" transform="translate(0,0)"/><path fill="#000" transform="translate(0,0)"/><path fill="gray" transform="translate(0,0)"/><path fill="#000" transform="translate(0,0)"/><path fill="#000" transform="translate(0,0)"/><path fill="#000" transform="translate(0,0)"/><path fill="#000" transform="translate(0,0)"/><path fill="#000" transform="translate(0,0)"/><path fill="#000" transform="translate(0,0)"/><path fill="#000" transform="translate(0,0)"/><path fill="gray" transform="translate(0,0)"/><path fill="#000" transform="translate(0,0)"/><path fill="#555" transform="translate(0,0)"/><path fill="#000" transform="translate(0,0)"/><path fill="#000" transform="translate(0,0)"/><path fill="#000" transform="translate(0,0)"/><path fill="#555" transform="translate(0,0)"/><path fill="#000" transform="translate(0,0)"/><path fill="#000" transform="translate(0,0)"/><path fill="#000" transform="translate(0,0)"/><path fill="gray" transform="translate(0,0)"/><path fill="#000" transform="translate(0,0)"/><path fill="#000" transform="translate(0,0)"/><path fill="gray" transform="translate(0,0)"/><path fill="#000" transform="translate(0,0)"/><path fill="#000" transform="translate(0,0)"/><path fill="#000" transform="translate(0,0)"/><path fill="#000" transform="translate(0,0)"/><path fill="gray" transform="translate(0,0)"/><path fill="#000" transform="translate(0,0)"/><path fill="#555" transform="translate(0,0)"/><path fill="#000" transform="translate(0,0)"/><path fill="#000" transform="translate(0,0)"/><path fill="#000" transform="translate(0,0)"/><path fill="gray" transform="translate(0,0)"/><path fill="gray" transform="translate(0,0)"/><path fill="gray" transform="translate(0,0)"/><path fill="#000" transform="translate(0,0)"/><path fill="#000" transform="translate(0,0)"/><path fill="#000" transform="translate(0,0)"/><path fill="gray" transform="translate(0,0)"/><path fill="#000" transform="translate(0,0)"/><path fill="#000" transform="translate(0,0)"/><path fill="#000" transform="translate(0,0)"/><path fill="#000" transform="translate(0,0)"/><path fill="gray" transform="translate(0,0)"/><path fill="#000" transform="translate(0,0)"/><path fill="gray" transform="translate(0,0)"/><path fill="#000" transform="translate(0,0)"/><path fill="#000" transform="translate(0,0)"/><path fill="#000" transform="translate(0,0)"/><path fill="#000" transform="translate(0,0)"/><path fill="#000" transform="translate(0,0)"/><path fill="#000" transform="translate(0,0)"/><path fill="#000" transform="translate(0,0)"/><path fill="#000" transform="translate(0,0)"/><path fill="gray" transform="translate(0,0)"/><path fill="#000" transform="translate(0,0)"/><path fill="#000" transform="translate(0,0)"/><path fill="#000" transform="translate(0,0)"/><path fill="#555" transform="translate(0,0)"/><path fill="gray" transform="translate(0,0)"/><path fill="#000" transform="translate(0,0)"/><path fill="gray" transform="translate(0,0)"/><path fill="#000" transform="translate(0,0)"/><path fill="#000" transform="translate(0,0)"/><path fill="#000" transform="translate(0,0)"/><path fill="#000" transform="translate(0,0)"/><path fill="gray" transform="translate(0,0)"/><path fill="#000" transform="translate(0,0)"/><path fill="#000" transform="translate(0,0)"/><path fill="#555" transform="translate(0,0)"/><path fill="#000" transform="translate(0,0)"/><path fill="#555" transform="translate(0,0)"/><path fill="#000" transform="translate(0,0)"/><path fill="gray" transform="translate(0,0)"/><path fill="#000" transform="translate(0,0)"/><path fill="#000" transform="translate(0,0)"/><path fill="#000" transform="translate(0,0)"/><path fill="#000" transform="translate(0,0)"/><path fill="#000" transform="translate(0,0)"/><path fill="#000" transform="translate(0,0)"/><path fill="#000" transform="translate(0,0)"/><path fill="#000" transform="translate(0,0)"/><path fill="gray" transform="translate(0,0)"/><path fill="gray" transform="translate(0,0)"/><path fill="gray" transform="translate(0,0)"/><path fill="#000" transform="translate(0,0)"/><path fill="gray" transform="translate(0,0)"/><path fill="#555" transform="translate(0,0)"/><path fill="#000" transform="translate(0,0)"/><path fill="#000" transform="translate(0,0)"/><path fill="#555" transform="translate(0,0)"/><path fill="#000" transform="translate(0,0)"/><path fill="#000" transform="translate(0,0)"/><path fill="#000" transform="translate(0,0)"/><path fill="gray" transform="translate(0,0)"/><path fill="#000" transform="translate(0,0)"/><path fill="gray" transform="translate(0,0)"/><path fill="gray" transform="translate(0,0)"/><path fill="gray" transform="translate(0,0)"/><path fill="#000" transform="translate(0,0)"/><path fill="#000" transform="translate(0,0)"/><path fill="#000" transform="translate(0,0)"/><path fill="#000" transform="translate(0,0)"/><path fill="gray" transform="translate(0,0)"/><path fill="#000" transform="translate(0,0)"/><path fill="gray" transform="translate(0,0)"/><path fill="gray" transform="translate(0,0)"/><path fill="#000" transform="translate(0,0)"/><path fill="#555" transform="translate(0,0)"/><path fill="#000" transform="translate(0,0)"/><path fill="gray" transform="translate(0,0)"/><path fill="#000" transform="translate(0,0)"/><path fill="#404040" transform="translate(0,0)"/><path fill="#000" transform="translate(0,0)"/><path fill="#000" transform="translate(0,0)"/><path fill="gray" transform="translate(0,0)"/><path fill="gray" transform="translate(0,0)"/><path fill="#000" transform="translate(0,0)"/><path fill="gray" transform="translate(0,0)"/><path fill="#404040" transform="translate(0,0)"/><path fill="gray" transform="translate(0,0)"/><path fill="#000" transform="translate(0,0)"/><path fill="gray" transform="translate(0,0)"/><path fill="#000" transform="translate(0,0)"/><path fill="gray" transform="translate(0,0)"/><path fill="#000" transform="translate(0,0)"/><path fill="gray" transform="translate(0,0)"/><path fill="#000" transform="translate(0,0)"/><path fill="#555" transform="translate(0,0)"/><path fill="#000" transform="translate(0,0)"/><path fill="#000" transform="translate(0,0)"/><path fill="#000" transform="translate(0,0)"/><path fill="gray" transform="translate(0,0)"/><path fill="#000" transform="translate(0,0)"/><path fill="#000" transform="translate(0,0)"/><path fill="#000" transform="translate(0,0)"/><path fill="#000" transform="translate(0,0)"/><path fill="#000" transform="translate(0,0)"/><path fill="#000" transform="translate(0,0)"/><path fill="#000" transform="translate(0,0)"/><path fill="gray" transform="translate(0,0)"/><path fill="#000" transform="translate(0,0)"/><path fill="#333" transform="translate(0,0)"/><path fill="gray" transform="translate(0,0)"/><path fill="#000" transform="translate(0,0)"/><path fill="#000" transform="translate(0,0)"/><path fill="#000" transform="translate(0,0)"/><path fill="gray" transform="translate(0,0)"/><path fill="#000" transform="translate(0,0)"/><path fill="#000" transform="translate(0,0)"/><path fill="gray" transform="translate(0,0)"/><path fill="#000" transform="translate(0,0)"/><path fill="gray" transform="translate(0,0)"/><path fill="#000" transform="translate(0,0)"/><path fill="#000" transform="translate(0,0)"/><path fill="#000" transform="translate(0,0)"/><path fill="gray" transform="translate(0,0)"/><path fill="gray" transform="translate(0,0)"/><path fill="gray" transform="translate(0,0)"/><path fill="#000" transform="translate(0,0)"/><path fill="#000" transform="translate(0,0)"/><path fill="#000" transform="translate(0,0)"/><path fill="#000" transform="translate(0,0)"/><path fill="#000" transform="translate(0,0)"/><path fill="#000" transform="translate(0,0)"/><path fill="#555" transform="translate(0,0)"/><path fill="#000" transform="translate(0,0)"/><path fill="#000" transform="translate(0,0)"/><path fill="#000" transform="translate(0,0)"/><path fill="#000" transform="translate(0,0)"/><path fill="#555" transform="translate(0,0)"/><path fill="gray" transform="translate(0,0)"/><path fill="#404040" transform="translate(0,0)"/><path fill="#000" transform="translate(0,0)"/><path fill="#000" transform="translate(0,0)"/><path fill="gray" transform="translate(0,0)"/><path fill="#000" transform="translate(0,0)"/><path fill="#000" transform="translate(0,0)"/><path fill="#000" transform="translate(0,0)"/><path fill="#555" transform="translate(0,0)"/><path fill="#000" transform="translate(0,0)"/><path fill="#000" transform="translate(0,0)"/><path fill="gray" transform="translate(0,0)"/><path fill="#000" transform="translate(0,0)"/><path fill="#555" transform="translate(0,0)"/><path fill="#000" transform="translate(0,0)"/><path fill="#000" transform="translate(0,0)"/><path fill="#555" transform="translate(0,0)"/><path fill="#000" transform="translate(0,0)"/><path fill="#555" transform="translate(0,0)"/><path fill="#000" transform="translate(0,0)"/><path fill="#404040" transform="translate(0,0)"/><path fill="#000" transform="translate(0,0)"/><path fill="#404040" transform="translate(0,0)"/><path fill="#000" transform="translate(0,0)"/><path fill="#000" transform="translate(0,0)"/><path fill="#000" transform="translate(0,0)"/><path fill="gray" transform="translate(0,0)"/><path fill="#000" transform="translate(0,0)"/><path fill="#000" transform="translate(0,0)"/><path fill="#000" transform="translate(0,0)"/><path fill="gray" transform="translate(0,0)"/><path fill="#000" transform="translate(0,0)"/><path fill="#000" transform="translate(0,0)"/><path fill="#000" transform="translate(0,0)"/><path fill="gray" transform="translate(0,0)"/><path fill="#000" transform="translate(0,0)"/><path fill="#000" transform="translate(0,0)"/><path fill="#000" transform="translate(0,0)"/><path fill="#000" transform="translate(0,0)"/><path fill="#000" transform="translate(0,0)"/><path fill="#000" transform="translate(0,0)"/><path fill="#000" transform="translate(0,0)"/><path fill="#000" transform="translate(0,0)"/><path fill="#000" transform="translate(0,0)"/><path fill="#000" transform="translate(0,0)"/><path fill="#000" transform="translate(0,0)"/><path fill="gray" transform="translate(0,0)"/><path fill="gray" transform="translate(0,0)"/><path fill="#000" transform="translate(0,0)"/><path fill="#000" transform="translate(0,0)"/><path fill="gray" transform="translate(0,0)"/><path fill="gray" transform="translate(0,0)"/><path fill="#000" transform="translate(0,0)"/><path fill="#000" transform="translate(0,0)"/><path fill="#000" transform="translate(0,0)"/><path fill="#000" transform="translate(0,0)"/><path fill="#555" transform="translate(0,0)"/><path fill="#000" transform="translate(0,0)"/><path fill="gray" transform="translate(0,0)"/><path fill="#000" transform="translate(0,0)"/><path fill="#000" transform="translate(0,0)"/><path fill="#000" transform="translate(0,0)"/><path fill="#000" transform="translate(0,0)"/><path fill="#000" transform="translate(0,0)"/><path fill="#000" transform="translate(0,0)"/><path fill="#000" transform="translate(0,0)"/><path fill="gray" transform="translate(0,0)"/><path fill="gray" transform="translate(0,0)"/><path fill="#000" transform="translate(0,0)"/><path fill="gray" transform="translate(0,0)"/><path fill="#000" transform="translate(0,0)"/><path fill="#000" transform="translate(0,0)"/><path fill="#404040" transform="translate(0,0)"/><path fill="#000" transform="translate(0,0)"/><path fill="#000" transform="translate(0,0)"/><path fill="gray" transform="translate(0,0)"/><path fill="#000" transform="translate(0,0)"/><path fill="#000" transform="translate(0,0)"/><path fill="#000" transform="translate(0,0)"/><path fill="gray" transform="translate(0,0)"/><path fill="#000" transform="translate(0,0)"/><path fill="#000" transform="translate(0,0)"/><path fill="#000" transform="translate(0,0)"/><path fill="#000" transform="translate(0,0)"/><path fill="#000" transform="translate(0,0)"/><path fill="gray" transform="translate(0,0)"/><path fill="#000" transform="translate(0,0)"/><path fill="#000" transform="translate(0,0)"/><path fill="gray" transform="translate(0,0)"/><path fill="#000" transform="translate(0,0)"/><path fill="#000" transform="translate(0,0)"/><path fill="gray" transform="translate(0,0)"/><path fill="#000" transform="translate(0,0)"/><path fill="gray" transform="translate(0,0)"/><path fill="gray" transform="translate(0,0)"/><path fill="#000" transform="translate(0,0)"/><path fill="#555" transform="translate(0,0)"/><path fill="gray" transform="translate(0,0)"/><path fill="#404040" transform="translate(0,0)"/><path fill="#000" transform="translate(0,0)"/><path fill="#000" transform="translate(0,0)"/><path fill="#000" transform="translate(0,0)"/><path fill="#000" transform="translate(0,0)"/><path fill="#000" transform="translate(0,0)"/><path fill="#555" transform="translate(0,0)"/><path fill="#000" transform="translate(0,0)"/><path fill="gray" transform="translate(0,0)"/><path fill="#000" transform="translate(0,0)"/><path fill="#000" transform="translate(0,0)"/><path fill="#000" transform="translate(0,0)"/><path fill="#000" transform="translate(0,0)"/><path fill="gray" transform="translate(0,0)"/><path fill="#000" transform="translate(0,0)"/><path fill="#000" transform="translate(0,0)"/><path fill="#000" transform="translate(0,0)"/><path fill="#000" transform="translate(0,0)"/><path fill="#000" transform="translate(0,0)"/></svg>